<mxfile host="Electron" modified="2024-05-24T16:51:37.679Z" agent="Mozilla/5.0 (Windows NT 10.0; Win64; x64) AppleWebKit/537.36 (KHTML, like Gecko) draw.io/24.4.0 Chrome/120.0.6099.109 Electron/28.1.0 Safari/537.36" etag="N5KXNfeK3fpTuyuCEirX" version="24.4.0" type="device">
  <diagram name="Функциональная схема" id="Page-1_(2)">
    <mxGraphModel dx="1036" dy="606" grid="1" gridSize="10" guides="1" tooltips="1" connect="1" arrows="1" fold="1" page="1" pageScale="1" pageWidth="827" pageHeight="1169" math="0" shadow="0">
      <root>
        <mxCell id="0" />
        <mxCell id="1" parent="0" />
        <UserObject label="" tags="Фон" id="2">
          <mxCell style="vsdxID=215;fillColor=none;gradientColor=none;strokeColor=none;spacingTop=-2;spacingBottom=-2;spacingLeft=-2;spacingRight=-2;points=[];labelBackgroundColor=none;rounded=0;html=1;whiteSpace=wrap;" parent="1" vertex="1">
            <mxGeometry x="80" y="28" width="736" height="1128" as="geometry" />
          </mxCell>
        </UserObject>
        <mxCell id="3" value="&lt;div style=&quot;font-size: 1px&quot;&gt;&lt;font style=&quot;font-size:9.88px;font-family:GOST type B;color:#000000;direction:ltr;letter-spacing:0px;line-height:120%;opacity:1&quot;&gt;&lt;i&gt;Изм.&lt;br/&gt;&lt;/i&gt;&lt;/font&gt;&lt;/div&gt;" style="verticalAlign=middle;align=center;overflow=width;vsdxID=179;fillColor=none;gradientColor=none;shape=stencil(nZBLDoAgDERP0z3SIyjew0SURgSD+Lu9kMZoXLhwN9O+tukAlrNpJg1SzDH4QW/URgNYgZTkjA4UkwJUgGXng+6DX1zLfmoymdXo17xh5zmRJ6Q42BWCfc2oJfdAr+Yv+AP9Cb7OJ3H/2JG1HNGz/84klThPVCc=);strokeColor=none;strokeWidth=2;spacingTop=-2;spacingBottom=-2;spacingLeft=-2;spacingRight=-2;points=[];labelBackgroundColor=none;rounded=0;html=1;whiteSpace=wrap;" parent="2" vertex="1">
          <mxGeometry y="993" width="29" height="17" as="geometry" />
        </mxCell>
        <mxCell id="4" value="&lt;div style=&quot;font-size: 1px&quot;&gt;&lt;font style=&quot;font-size:9.88px;font-family:GOST type B;color:#000000;direction:ltr;letter-spacing:0px;line-height:120%;opacity:1&quot;&gt;&lt;i&gt;Лист&lt;br/&gt;&lt;/i&gt;&lt;/font&gt;&lt;/div&gt;" style="verticalAlign=middle;align=center;overflow=width;vsdxID=180;fillColor=none;gradientColor=none;shape=stencil(nZBLDoAgDERP0z3SIyjew0SURgSD+Lu9kMZoXLhwN9O+tukAlrNpJg1SzDH4QW/URgNYgZTkjA4UkwJUgGXng+6DX1zLfmoymdXo17xh5zmRJ6Q42BWCfc2oJfdAr+Yv+AP9Cb7OJ3H/2JG1HNGz/84klThPVCc=);strokeColor=none;strokeWidth=2;spacingTop=-2;spacingBottom=-2;spacingLeft=-2;spacingRight=-2;points=[];labelBackgroundColor=none;rounded=0;html=1;whiteSpace=wrap;" parent="2" vertex="1">
          <mxGeometry x="29" y="993" width="39" height="17" as="geometry" />
        </mxCell>
        <mxCell id="5" value="&lt;div style=&quot;font-size: 1px&quot;&gt;&lt;font style=&quot;font-size:9.88px;font-family:GOST type B;color:#000000;direction:ltr;letter-spacing:0px;line-height:120%;opacity:1&quot;&gt;&lt;i&gt;№ докум.&lt;br/&gt;&lt;/i&gt;&lt;/font&gt;&lt;/div&gt;" style="verticalAlign=middle;align=center;overflow=width;vsdxID=181;fillColor=none;gradientColor=none;shape=stencil(nZBLDoAgDERP0z3SIyjew0SURgSD+Lu9kMZoXLhwN9O+tukAlrNpJg1SzDH4QW/URgNYgZTkjA4UkwJUgGXng+6DX1zLfmoymdXo17xh5zmRJ6Q42BWCfc2oJfdAr+Yv+AP9Cb7OJ3H/2JG1HNGz/84klThPVCc=);strokeColor=none;strokeWidth=2;spacingTop=-2;spacingBottom=-2;spacingLeft=-2;spacingRight=-2;points=[];labelBackgroundColor=none;rounded=0;html=1;whiteSpace=wrap;" parent="2" vertex="1">
          <mxGeometry x="68" y="993" width="78" height="17" as="geometry" />
        </mxCell>
        <mxCell id="6" value="&lt;div style=&quot;font-size: 1px&quot;&gt;&lt;font style=&quot;font-size:9.88px;font-family:GOST type B;color:#000000;direction:ltr;letter-spacing:0px;line-height:120%;opacity:1&quot;&gt;&lt;i&gt;Подпись&lt;br/&gt;&lt;/i&gt;&lt;/font&gt;&lt;/div&gt;" style="verticalAlign=middle;align=center;overflow=width;vsdxID=182;fillColor=none;gradientColor=none;shape=stencil(nZBLDoAgDERP0z3SIyjew0SURgSD+Lu9kMZoXLhwN9O+tukAlrNpJg1SzDH4QW/URgNYgZTkjA4UkwJUgGXng+6DX1zLfmoymdXo17xh5zmRJ6Q42BWCfc2oJfdAr+Yv+AP9Cb7OJ3H/2JG1HNGz/84klThPVCc=);strokeColor=none;strokeWidth=2;spacingTop=-2;spacingBottom=-2;spacingLeft=-2;spacingRight=-2;points=[];labelBackgroundColor=none;rounded=0;html=1;whiteSpace=wrap;" parent="2" vertex="1">
          <mxGeometry x="147" y="993" width="58" height="17" as="geometry" />
        </mxCell>
        <mxCell id="7" value="&lt;div style=&quot;font-size: 1px&quot;&gt;&lt;font style=&quot;font-size:9.88px;font-family:GOST type B;color:#000000;direction:ltr;letter-spacing:0px;line-height:120%;opacity:1&quot;&gt;&lt;i&gt;Дата&lt;br/&gt;&lt;/i&gt;&lt;/font&gt;&lt;/div&gt;" style="verticalAlign=middle;align=center;overflow=width;vsdxID=183;fillColor=none;gradientColor=none;shape=stencil(nZBLDoAgDERP0z3SIyjew0SURgSD+Lu9kMZoXLhwN9O+tukAlrNpJg1SzDH4QW/URgNYgZTkjA4UkwJUgGXng+6DX1zLfmoymdXo17xh5zmRJ6Q42BWCfc2oJfdAr+Yv+AP9Cb7OJ3H/2JG1HNGz/84klThPVCc=);strokeColor=none;strokeWidth=2;spacingTop=-2;spacingBottom=-2;spacingLeft=-2;spacingRight=-2;points=[];labelBackgroundColor=none;rounded=0;html=1;whiteSpace=wrap;" parent="2" vertex="1">
          <mxGeometry x="206" y="993" width="39" height="17" as="geometry" />
        </mxCell>
        <mxCell id="8" value="&lt;div style=&quot;font-size: 1px&quot;&gt;&lt;p style=&quot;text-align:left;margin-left:0;margin-right:0;margin-top:0px;margin-bottom:0px;text-indent:0;vertical-align:middle;direction:ltr;&quot;&gt;&lt;font style=&quot;font-size:9.88px;font-family:GOST type B;color:#000000;direction:ltr;letter-spacing:0px;line-height:120%;opacity:1&quot;&gt;&lt;i&gt;Разраб.&lt;br/&gt;&lt;/i&gt;&lt;/font&gt;&lt;/p&gt;&lt;/div&gt;" style="verticalAlign=middle;align=left;overflow=width;vsdxID=184;fillColor=none;gradientColor=none;shape=stencil(nZBLDoAgDERP0z3SIyjew0SURgSD+Lu9kMZoXLhwN9O+tukAlrNpJg1SzDH4QW/URgNYgZTkjA4UkwJUgGXng+6DX1zLfmoymdXo17xh5zmRJ6Q42BWCfc2oJfdAr+Yv+AP9Cb7OJ3H/2JG1HNGz/84klThPVCc=);strokeColor=none;strokeWidth=2;spacingTop=-2;spacingBottom=-2;spacingLeft=-2;spacingRight=-2;points=[];labelBackgroundColor=none;rounded=0;html=1;whiteSpace=wrap;" parent="2" vertex="1">
          <mxGeometry y="1014" width="68" height="17" as="geometry" />
        </mxCell>
        <mxCell id="9" value="&lt;div style=&quot;font-size: 1px&quot;&gt;&lt;p style=&quot;text-align:left;margin-left:0;margin-right:0;margin-top:0px;margin-bottom:0px;text-indent:0;vertical-align:middle;direction:ltr;&quot;&gt;&lt;font style=&quot;font-size:9.88px;font-family:GOST type B;color:#000000;direction:ltr;letter-spacing:0px;line-height:120%;opacity:1&quot;&gt;&lt;i&gt;Проверил&lt;br/&gt;&lt;/i&gt;&lt;/font&gt;&lt;/p&gt;&lt;/div&gt;" style="verticalAlign=middle;align=left;overflow=width;vsdxID=185;fillColor=none;gradientColor=none;shape=stencil(nZBLDoAgDERP0z3SIyjew0SURgSD+Lu9kMZoXLhwN9O+tukAlrNpJg1SzDH4QW/URgNYgZTkjA4UkwJUgGXng+6DX1zLfmoymdXo17xh5zmRJ6Q42BWCfc2oJfdAr+Yv+AP9Cb7OJ3H/2JG1HNGz/84klThPVCc=);strokeColor=none;strokeWidth=2;spacingTop=-2;spacingBottom=-2;spacingLeft=-2;spacingRight=-2;points=[];labelBackgroundColor=none;rounded=0;html=1;whiteSpace=wrap;" parent="2" vertex="1">
          <mxGeometry y="1034" width="68" height="11" as="geometry" />
        </mxCell>
        <mxCell id="10" value="&lt;div style=&quot;font-size: 1px&quot;&gt;&lt;font style=&quot;font-size:9.88px;font-family:GOST type B;color:#000000;direction:ltr;letter-spacing:0px;line-height:120%;opacity:1&quot;&gt;&lt;i&gt;Лист&lt;br/&gt;&lt;/i&gt;&lt;/font&gt;&lt;/div&gt;" style="verticalAlign=middle;align=center;overflow=width;vsdxID=189;fillColor=none;gradientColor=none;shape=stencil(nZBLDoAgDERP0z3SIyjew0SURgSD+Lu9kMZoXLhwN9O+tukAlrNpJg1SzDH4QW/URgNYgZTkjA4UkwJUgGXng+6DX1zLfmoymdXo17xh5zmRJ6Q42BWCfc2oJfdAr+Yv+AP9Cb7OJ3H/2JG1HNGz/84klThPVCc=);strokeColor=none;strokeWidth=2;spacingTop=-2;spacingBottom=-2;spacingLeft=-2;spacingRight=-2;points=[];labelBackgroundColor=none;rounded=0;html=1;whiteSpace=wrap;" parent="2" vertex="1">
          <mxGeometry x="539" y="1051" width="39" height="17" as="geometry" />
        </mxCell>
        <mxCell id="11" value="&lt;div style=&quot;font-size: 1px&quot;&gt;&lt;font style=&quot;font-size:9.88px;font-family:GOST type B;color:#000000;direction:ltr;letter-spacing:0px;line-height:120%;opacity:1&quot;&gt;&lt;i&gt;Листов&lt;br/&gt;&lt;/i&gt;&lt;/font&gt;&lt;/div&gt;" style="verticalAlign=middle;align=center;overflow=width;vsdxID=190;fillColor=none;gradientColor=none;shape=stencil(nZBLDoAgDERP0z3SIyjew0SURgSD+Lu9kMZoXLhwN9O+tukAlrNpJg1SzDH4QW/URgNYgZTkjA4UkwJUgGXng+6DX1zLfmoymdXo17xh5zmRJ6Q42BWCfc2oJfdAr+Yv+AP9Cb7OJ3H/2JG1HNGz/84klThPVCc=);strokeColor=none;strokeWidth=2;spacingTop=-2;spacingBottom=-2;spacingLeft=-2;spacingRight=-2;points=[];labelBackgroundColor=none;rounded=0;html=1;whiteSpace=wrap;" parent="2" vertex="1">
          <mxGeometry x="618" y="1051" width="49" height="17" as="geometry" />
        </mxCell>
        <mxCell id="12" value="&lt;div style=&quot;font-size: 1px&quot;&gt;&lt;font style=&quot;font-size:9.88px;font-family:GOST type B;color:#000000;direction:ltr;letter-spacing:0px;line-height:120%;opacity:1&quot;&gt;&lt;i&gt;Лит.&lt;br/&gt;&lt;/i&gt;&lt;/font&gt;&lt;/div&gt;" style="verticalAlign=middle;align=center;overflow=width;vsdxID=191;fillColor=none;gradientColor=none;shape=stencil(nZBLDoAgDERP0z3SIyjew0SURgSD+Lu9kMZoXLhwN9O+tukAlrNpJg1SzDH4QW/URgNYgZTkjA4UkwJUgGXng+6DX1zLfmoymdXo17xh5zmRJ6Q42BWCfc2oJfdAr+Yv+AP9Cb7OJ3H/2JG1HNGz/84klThPVCc=);strokeColor=none;strokeWidth=2;spacingTop=-2;spacingBottom=-2;spacingLeft=-2;spacingRight=-2;points=[];labelBackgroundColor=none;rounded=0;html=1;whiteSpace=wrap;" parent="2" vertex="1">
          <mxGeometry x="539" y="973" width="58" height="17" as="geometry" />
        </mxCell>
        <mxCell id="13" value="&lt;div style=&quot;font-size: 1px&quot;&gt;&lt;font style=&quot;font-size:9.88px;font-family:GOST type B;color:#000000;direction:ltr;letter-spacing:0px;line-height:120%;opacity:1&quot;&gt;&lt;i&gt;Масса&lt;br/&gt;&lt;/i&gt;&lt;/font&gt;&lt;/div&gt;" style="verticalAlign=middle;align=center;overflow=width;vsdxID=192;fillColor=none;gradientColor=none;shape=stencil(nZBLDoAgDERP0z3SIyjew0SURgSD+Lu9kMZoXLhwN9O+tukAlrNpJg1SzDH4QW/URgNYgZTkjA4UkwJUgGXng+6DX1zLfmoymdXo17xh5zmRJ6Q42BWCfc2oJfdAr+Yv+AP9Cb7OJ3H/2JG1HNGz/84klThPVCc=);strokeColor=none;strokeWidth=2;spacingTop=-2;spacingBottom=-2;spacingLeft=-2;spacingRight=-2;points=[];labelBackgroundColor=none;rounded=0;html=1;whiteSpace=wrap;" parent="2" vertex="1">
          <mxGeometry x="598" y="973" width="58" height="17" as="geometry" />
        </mxCell>
        <mxCell id="14" value="&lt;div style=&quot;font-size: 1px&quot;&gt;&lt;font style=&quot;font-size:9.88px;font-family:GOST type B;color:#000000;direction:ltr;letter-spacing:0px;line-height:120%;opacity:1&quot;&gt;&lt;i&gt;Масштаб&lt;br/&gt;&lt;/i&gt;&lt;/font&gt;&lt;/div&gt;" style="verticalAlign=middle;align=center;overflow=width;vsdxID=193;fillColor=none;gradientColor=none;shape=stencil(nZBLDoAgDERP0z3SIyjew0SURgSD+Lu9kMZoXLhwN9O+tukAlrNpJg1SzDH4QW/URgNYgZTkjA4UkwJUgGXng+6DX1zLfmoymdXo17xh5zmRJ6Q42BWCfc2oJfdAr+Yv+AP9Cb7OJ3H/2JG1HNGz/84klThPVCc=);strokeColor=none;strokeWidth=2;spacingTop=-2;spacingBottom=-2;spacingLeft=-2;spacingRight=-2;points=[];labelBackgroundColor=none;rounded=0;html=1;whiteSpace=wrap;" parent="2" vertex="1">
          <mxGeometry x="657" y="973" width="78" height="17" as="geometry" />
        </mxCell>
        <UserObject label="" tags="Фон" id="76">
          <mxCell style="vsdxID=146;edgeStyle=none;startArrow=none;endArrow=none;startSize=3;endSize=3;strokeWidth=2;strokeColor=#000000;spacingTop=-2;spacingBottom=-2;spacingLeft=-2;spacingRight=-2;verticalAlign=middle;html=1;labelBackgroundColor=none;rounded=0;" parent="2" edge="1">
            <mxGeometry relative="1" as="geometry">
              <mxPoint as="offset" />
              <Array as="points" />
              <mxPoint x="539" y="1049" as="sourcePoint" />
              <mxPoint x="736" y="1049" as="targetPoint" />
            </mxGeometry>
          </mxCell>
        </UserObject>
        <UserObject label="" tags="Фон" id="77">
          <mxCell style="vsdxID=147;edgeStyle=none;startArrow=none;endArrow=none;startSize=3;endSize=3;strokeWidth=2;strokeColor=#000000;spacingTop=-2;spacingBottom=-2;spacingLeft=-2;spacingRight=-2;verticalAlign=middle;html=1;labelBackgroundColor=none;rounded=0;" parent="2" edge="1">
            <mxGeometry relative="1" as="geometry">
              <Array as="points" />
              <mxPoint x="736" y="990" as="sourcePoint" />
              <mxPoint x="539" y="990" as="targetPoint" />
            </mxGeometry>
          </mxCell>
        </UserObject>
        <UserObject label="" tags="Фон" id="78">
          <mxCell style="vsdxID=148;edgeStyle=none;startArrow=none;endArrow=none;startSize=3;endSize=3;strokeWidth=2;strokeColor=#000000;spacingTop=-2;spacingBottom=-2;spacingLeft=-2;spacingRight=-2;verticalAlign=middle;html=1;labelBackgroundColor=none;rounded=0;" parent="2" edge="1">
            <mxGeometry relative="1" as="geometry">
              <mxPoint as="offset" />
              <Array as="points" />
              <mxPoint x="245" y="1069" as="sourcePoint" />
              <mxPoint x="736" y="1069" as="targetPoint" />
            </mxGeometry>
          </mxCell>
        </UserObject>
        <UserObject label="" tags="Фон" id="79">
          <mxCell style="vsdxID=149;edgeStyle=none;startArrow=none;endArrow=none;startSize=3;endSize=3;strokeWidth=2;strokeColor=#000000;spacingTop=-2;spacingBottom=-2;spacingLeft=-2;spacingRight=-2;verticalAlign=middle;html=1;labelBackgroundColor=none;rounded=0;" parent="2" edge="1">
            <mxGeometry relative="1" as="geometry">
              <mxPoint x="-1" as="offset" />
              <Array as="points" />
              <mxPoint y="1128" as="sourcePoint" />
              <mxPoint x="735" y="1128" as="targetPoint" />
            </mxGeometry>
          </mxCell>
        </UserObject>
        <UserObject label="" tags="Фон" id="80">
          <mxCell style="vsdxID=150;edgeStyle=none;startArrow=none;endArrow=none;startSize=3;endSize=3;strokeWidth=2;strokeColor=#000000;spacingTop=-2;spacingBottom=-2;spacingLeft=-2;spacingRight=-2;verticalAlign=middle;html=1;labelBackgroundColor=none;rounded=0;" parent="2" edge="1">
            <mxGeometry relative="1" as="geometry">
              <Array as="points" />
              <mxPoint x="736" y="971" as="sourcePoint" />
              <mxPoint x="245" y="971" as="targetPoint" />
            </mxGeometry>
          </mxCell>
        </UserObject>
        <UserObject label="" tags="Фон" id="81">
          <mxCell style="vsdxID=151;edgeStyle=none;startArrow=none;endArrow=none;startSize=3;endSize=3;strokeWidth=2;strokeColor=#000000;spacingTop=-2;spacingBottom=-2;spacingLeft=-2;spacingRight=-2;verticalAlign=middle;html=1;labelBackgroundColor=none;rounded=0;" parent="2" edge="1">
            <mxGeometry relative="1" as="geometry">
              <Array as="points" />
              <mxPoint x="736" y="912" as="sourcePoint" />
              <mxPoint y="912" as="targetPoint" />
            </mxGeometry>
          </mxCell>
        </UserObject>
        <UserObject label="" tags="Фон" id="82">
          <mxCell style="vsdxID=154;edgeStyle=none;startArrow=none;endArrow=none;startSize=3;endSize=3;strokeWidth=2;strokeColor=#000000;spacingTop=-2;spacingBottom=-2;spacingLeft=-2;spacingRight=-2;verticalAlign=middle;html=1;labelBackgroundColor=none;rounded=0;" parent="2" edge="1">
            <mxGeometry relative="1" as="geometry">
              <Array as="points" />
              <mxPoint y="1128" as="sourcePoint" />
              <mxPoint y="-1" as="targetPoint" />
            </mxGeometry>
          </mxCell>
        </UserObject>
        <UserObject label="" tags="Фон" id="83">
          <mxCell style="vsdxID=155;edgeStyle=none;startArrow=none;endArrow=none;startSize=3;endSize=3;strokeWidth=2;strokeColor=#000000;spacingTop=-2;spacingBottom=-2;spacingLeft=-2;spacingRight=-2;verticalAlign=middle;html=1;labelBackgroundColor=none;rounded=0;" parent="2" edge="1">
            <mxGeometry relative="1" as="geometry">
              <Array as="points" />
              <mxPoint x="736" y="1128" as="sourcePoint" />
              <mxPoint x="736" y="-1" as="targetPoint" />
            </mxGeometry>
          </mxCell>
        </UserObject>
        <UserObject label="" tags="Фон" id="84">
          <mxCell style="vsdxID=156;edgeStyle=none;startArrow=none;endArrow=none;startSize=3;endSize=3;strokeWidth=2;strokeColor=#000000;spacingTop=-2;spacingBottom=-2;spacingLeft=-2;spacingRight=-2;verticalAlign=middle;html=1;labelBackgroundColor=none;rounded=0;" parent="2" edge="1">
            <mxGeometry relative="1" as="geometry">
              <Array as="points" />
              <mxPoint x="657" y="1049" as="sourcePoint" />
              <mxPoint x="657" y="971" as="targetPoint" />
            </mxGeometry>
          </mxCell>
        </UserObject>
        <UserObject label="" tags="Фон" id="85">
          <mxCell style="vsdxID=157;edgeStyle=none;startArrow=none;endArrow=none;startSize=3;endSize=3;strokeWidth=2;strokeColor=#000000;spacingTop=-2;spacingBottom=-2;spacingLeft=-2;spacingRight=-2;verticalAlign=middle;html=1;labelBackgroundColor=none;rounded=0;" parent="2" edge="1">
            <mxGeometry relative="1" as="geometry">
              <Array as="points" />
              <mxPoint x="598" y="1049" as="sourcePoint" />
              <mxPoint x="598" y="971" as="targetPoint" />
            </mxGeometry>
          </mxCell>
        </UserObject>
        <UserObject label="" tags="Фон" id="86">
          <mxCell style="vsdxID=158;edgeStyle=none;startArrow=none;endArrow=none;startSize=3;endSize=3;strokeWidth=2;strokeColor=#000000;spacingTop=-2;spacingBottom=-2;spacingLeft=-2;spacingRight=-2;verticalAlign=middle;html=1;labelBackgroundColor=none;rounded=0;" parent="2" edge="1">
            <mxGeometry relative="1" as="geometry">
              <Array as="points" />
              <mxPoint x="579" y="1049" as="sourcePoint" />
              <mxPoint x="579" y="990" as="targetPoint" />
            </mxGeometry>
          </mxCell>
        </UserObject>
        <UserObject label="" tags="Фон" id="87">
          <mxCell style="vsdxID=159;edgeStyle=none;startArrow=none;endArrow=none;startSize=3;endSize=3;strokeWidth=2;strokeColor=#000000;spacingTop=-2;spacingBottom=-2;spacingLeft=-2;spacingRight=-2;verticalAlign=middle;html=1;labelBackgroundColor=none;rounded=0;" parent="2" edge="1">
            <mxGeometry relative="1" as="geometry">
              <Array as="points" />
              <mxPoint x="559" y="1049" as="sourcePoint" />
              <mxPoint x="559" y="990" as="targetPoint" />
            </mxGeometry>
          </mxCell>
        </UserObject>
        <UserObject label="" tags="Фон" id="88">
          <mxCell style="vsdxID=160;edgeStyle=none;startArrow=none;endArrow=none;startSize=3;endSize=3;strokeWidth=2;strokeColor=#000000;spacingTop=-2;spacingBottom=-2;spacingLeft=-2;spacingRight=-2;verticalAlign=middle;html=1;labelBackgroundColor=none;rounded=0;" parent="2" edge="1">
            <mxGeometry relative="1" as="geometry">
              <Array as="points" />
              <mxPoint x="539" y="1128" as="sourcePoint" />
              <mxPoint x="539" y="971" as="targetPoint" />
            </mxGeometry>
          </mxCell>
        </UserObject>
        <UserObject label="" tags="Фон" id="89">
          <mxCell style="vsdxID=161;edgeStyle=none;startArrow=none;endArrow=none;startSize=3;endSize=3;strokeWidth=2;strokeColor=#000000;spacingTop=-2;spacingBottom=-2;spacingLeft=-2;spacingRight=-2;verticalAlign=middle;html=1;labelBackgroundColor=none;rounded=0;" parent="2" edge="1">
            <mxGeometry relative="1" as="geometry">
              <Array as="points" />
              <mxPoint x="618" y="1069" as="sourcePoint" />
              <mxPoint x="618" y="1049" as="targetPoint" />
            </mxGeometry>
          </mxCell>
        </UserObject>
        <UserObject label="" tags="Фон" id="90">
          <mxCell style="vsdxID=162;edgeStyle=none;startArrow=none;endArrow=none;startSize=3;endSize=3;strokeWidth=2;strokeColor=#000000;spacingTop=-2;spacingBottom=-2;spacingLeft=-2;spacingRight=-2;verticalAlign=middle;html=1;labelBackgroundColor=none;rounded=0;" parent="2" edge="1">
            <mxGeometry relative="1" as="geometry">
              <Array as="points" />
              <mxPoint x="29" y="1010" as="sourcePoint" />
              <mxPoint x="29" y="912" as="targetPoint" />
            </mxGeometry>
          </mxCell>
        </UserObject>
        <UserObject label="" tags="Фон" id="91">
          <mxCell style="vsdxID=163;edgeStyle=none;startArrow=none;endArrow=none;startSize=3;endSize=3;strokeWidth=2;strokeColor=#000000;spacingTop=-2;spacingBottom=-2;spacingLeft=-2;spacingRight=-2;verticalAlign=middle;html=1;labelBackgroundColor=none;rounded=0;" parent="2" edge="1">
            <mxGeometry relative="1" as="geometry">
              <Array as="points" />
              <mxPoint x="68" y="1128" as="sourcePoint" />
              <mxPoint x="68" y="912" as="targetPoint" />
            </mxGeometry>
          </mxCell>
        </UserObject>
        <UserObject label="" tags="Фон" id="92">
          <mxCell style="vsdxID=164;edgeStyle=none;startArrow=none;endArrow=none;startSize=3;endSize=3;strokeWidth=2;strokeColor=#000000;spacingTop=-2;spacingBottom=-2;spacingLeft=-2;spacingRight=-2;verticalAlign=middle;html=1;labelBackgroundColor=none;rounded=0;" parent="2" edge="1">
            <mxGeometry relative="1" as="geometry">
              <Array as="points" />
              <mxPoint x="147" y="1128" as="sourcePoint" />
              <mxPoint x="147" y="912" as="targetPoint" />
            </mxGeometry>
          </mxCell>
        </UserObject>
        <UserObject label="" tags="Фон" id="93">
          <mxCell style="vsdxID=165;edgeStyle=none;startArrow=none;endArrow=none;startSize=3;endSize=3;strokeWidth=2;strokeColor=#000000;spacingTop=-2;spacingBottom=-2;spacingLeft=-2;spacingRight=-2;verticalAlign=middle;html=1;labelBackgroundColor=none;rounded=0;" parent="2" edge="1">
            <mxGeometry relative="1" as="geometry">
              <Array as="points" />
              <mxPoint x="206" y="1128" as="sourcePoint" />
              <mxPoint x="206" y="912" as="targetPoint" />
            </mxGeometry>
          </mxCell>
        </UserObject>
        <UserObject label="" tags="Фон" id="94">
          <mxCell style="vsdxID=166;edgeStyle=none;startArrow=none;endArrow=none;startSize=3;endSize=3;strokeWidth=2;strokeColor=#000000;spacingTop=-2;spacingBottom=-2;spacingLeft=-2;spacingRight=-2;verticalAlign=middle;html=1;labelBackgroundColor=none;rounded=0;" parent="2" edge="1">
            <mxGeometry relative="1" as="geometry">
              <Array as="points" />
              <mxPoint x="245" y="1128" as="sourcePoint" />
              <mxPoint x="245" y="912" as="targetPoint" />
            </mxGeometry>
          </mxCell>
        </UserObject>
        <UserObject label="" tags="Фон" id="95">
          <mxCell style="vsdxID=167;edgeStyle=none;startArrow=none;endArrow=none;startSize=3;endSize=3;strokeWidth=2;strokeColor=#000000;spacingTop=-2;spacingBottom=-2;spacingLeft=-2;spacingRight=-2;verticalAlign=middle;html=1;labelBackgroundColor=none;rounded=0;" parent="2" edge="1">
            <mxGeometry relative="1" as="geometry">
              <Array as="points" />
              <mxPoint x="245" y="931" as="sourcePoint" />
              <mxPoint y="931" as="targetPoint" />
            </mxGeometry>
          </mxCell>
        </UserObject>
        <UserObject label="" tags="Фон" id="96">
          <mxCell style="vsdxID=168;edgeStyle=none;startArrow=none;endArrow=none;startSize=3;endSize=3;strokeWidth=2;strokeColor=#000000;spacingTop=-2;spacingBottom=-2;spacingLeft=-2;spacingRight=-2;verticalAlign=middle;html=1;labelBackgroundColor=none;rounded=0;" parent="2" edge="1">
            <mxGeometry relative="1" as="geometry">
              <Array as="points" />
              <mxPoint x="245" y="951" as="sourcePoint" />
              <mxPoint y="951" as="targetPoint" />
            </mxGeometry>
          </mxCell>
        </UserObject>
        <UserObject label="" tags="Фон" id="97">
          <mxCell style="vsdxID=169;edgeStyle=none;startArrow=none;endArrow=none;startSize=3;endSize=3;strokeWidth=2;strokeColor=#000000;spacingTop=-2;spacingBottom=-2;spacingLeft=-2;spacingRight=-2;verticalAlign=middle;html=1;labelBackgroundColor=none;rounded=0;" parent="2" edge="1">
            <mxGeometry relative="1" as="geometry">
              <Array as="points" />
              <mxPoint x="245" y="990" as="sourcePoint" />
              <mxPoint y="990" as="targetPoint" />
            </mxGeometry>
          </mxCell>
        </UserObject>
        <UserObject label="" tags="Фон" id="98">
          <mxCell style="vsdxID=170;edgeStyle=none;startArrow=none;endArrow=none;startSize=3;endSize=3;strokeWidth=2;strokeColor=#000000;spacingTop=-2;spacingBottom=-2;spacingLeft=-2;spacingRight=-2;verticalAlign=middle;html=1;labelBackgroundColor=none;rounded=0;" parent="2" edge="1">
            <mxGeometry relative="1" as="geometry">
              <Array as="points" />
              <mxPoint x="245" y="1010" as="sourcePoint" />
              <mxPoint y="1010" as="targetPoint" />
            </mxGeometry>
          </mxCell>
        </UserObject>
        <UserObject label="" tags="Фон" id="99">
          <mxCell style="vsdxID=171;edgeStyle=none;startArrow=none;endArrow=none;startSize=3;endSize=3;strokeWidth=2;strokeColor=#000000;spacingTop=-2;spacingBottom=-2;spacingLeft=-2;spacingRight=-2;verticalAlign=middle;html=1;labelBackgroundColor=none;rounded=0;" parent="2" edge="1">
            <mxGeometry relative="1" as="geometry">
              <Array as="points" />
              <mxPoint x="245" y="1029" as="sourcePoint" />
              <mxPoint y="1029" as="targetPoint" />
            </mxGeometry>
          </mxCell>
        </UserObject>
        <mxCell id="100" value="&lt;div style=&quot;font-size: 1px&quot;&gt;&lt;/div&gt;" style="text;vsdxID=171;edgeStyle=none;startArrow=none;endArrow=none;startSize=3;endSize=3;strokeWidth=2;strokeColor=none;spacingTop=-2;spacingBottom=-2;spacingLeft=-2;spacingRight=-2;verticalAlign=middle;html=1;labelBackgroundColor=none;rounded=0;align=center;overflow=width;fillColor=none;gradientColor=none;whiteSpace=wrap;;html=1;;rotation=0" parent="99" vertex="1">
          <mxGeometry width="245.3" height="1" relative="1" as="geometry">
            <mxPoint x="122.35" y="-0.5" as="offset" />
          </mxGeometry>
        </mxCell>
        <UserObject label="" tags="Фон" id="101">
          <mxCell style="vsdxID=172;edgeStyle=none;startArrow=none;endArrow=none;startSize=3;endSize=3;strokeWidth=2;strokeColor=#000000;spacingTop=-2;spacingBottom=-2;spacingLeft=-2;spacingRight=-2;verticalAlign=middle;html=1;labelBackgroundColor=none;rounded=0;" parent="2" edge="1">
            <mxGeometry relative="1" as="geometry">
              <Array as="points" />
              <mxPoint x="245" y="1049" as="sourcePoint" />
              <mxPoint y="1049" as="targetPoint" />
            </mxGeometry>
          </mxCell>
        </UserObject>
        <UserObject label="" tags="Фон" id="102">
          <mxCell style="vsdxID=173;edgeStyle=none;startArrow=none;endArrow=none;startSize=3;endSize=3;strokeWidth=2;strokeColor=#000000;spacingTop=-2;spacingBottom=-2;spacingLeft=-2;spacingRight=-2;verticalAlign=middle;html=1;labelBackgroundColor=none;rounded=0;" parent="2" edge="1">
            <mxGeometry relative="1" as="geometry">
              <Array as="points" />
              <mxPoint x="245" y="1088" as="sourcePoint" />
              <mxPoint y="1088" as="targetPoint" />
            </mxGeometry>
          </mxCell>
        </UserObject>
        <UserObject label="" tags="Фон" id="103">
          <mxCell style="vsdxID=174;edgeStyle=none;startArrow=none;endArrow=none;startSize=3;endSize=3;strokeWidth=2;strokeColor=#000000;spacingTop=-2;spacingBottom=-2;spacingLeft=-2;spacingRight=-2;verticalAlign=middle;html=1;labelBackgroundColor=none;rounded=0;" parent="2" edge="1">
            <mxGeometry relative="1" as="geometry">
              <Array as="points" />
              <mxPoint x="245" y="1108" as="sourcePoint" />
              <mxPoint y="1108" as="targetPoint" />
            </mxGeometry>
          </mxCell>
        </UserObject>
        <UserObject label="" tags="Фон" id="104">
          <mxCell style="vsdxID=194;edgeStyle=none;startArrow=none;endArrow=none;startSize=3;endSize=3;strokeWidth=2;strokeColor=#000000;spacingTop=-2;spacingBottom=-2;spacingLeft=-2;spacingRight=-2;verticalAlign=middle;html=1;labelBackgroundColor=none;rounded=0;" parent="2" edge="1">
            <mxGeometry relative="1" as="geometry">
              <Array as="points" />
              <mxPoint x="245" y="971" as="sourcePoint" />
              <mxPoint y="971" as="targetPoint" />
            </mxGeometry>
          </mxCell>
        </UserObject>
        <UserObject label="" tags="Фон" id="105">
          <mxCell style="vsdxID=195;edgeStyle=none;startArrow=none;endArrow=none;startSize=3;endSize=3;strokeWidth=2;strokeColor=#000000;spacingTop=-2;spacingBottom=-2;spacingLeft=-2;spacingRight=-2;verticalAlign=middle;html=1;labelBackgroundColor=none;rounded=0;" parent="2" edge="1">
            <mxGeometry relative="1" as="geometry">
              <Array as="points" />
              <mxPoint x="245" y="1069" as="sourcePoint" />
              <mxPoint y="1069" as="targetPoint" />
            </mxGeometry>
          </mxCell>
        </UserObject>
        <UserObject label="" tags="Фон" id="106">
          <mxCell style="vsdxID=199;edgeStyle=none;startArrow=none;endArrow=none;startSize=3;endSize=3;strokeWidth=2;strokeColor=#000000;spacingTop=-2;spacingBottom=-2;spacingLeft=-2;spacingRight=-2;verticalAlign=middle;html=1;labelBackgroundColor=none;rounded=0;" parent="2" edge="1">
            <mxGeometry relative="1" as="geometry">
              <mxPoint x="-1" as="offset" />
              <Array as="points" />
              <mxPoint y="-1" as="sourcePoint" />
              <mxPoint x="736" y="-1" as="targetPoint" />
            </mxGeometry>
          </mxCell>
        </UserObject>
        <UserObject label="" tags="Блок-схема" id="29">
          <mxCell style="vsdxID=346;fillColor=#FFFFFF;gradientColor=none;shape=stencil(UzV2Ls5ILEhVNTIoLinKz04tz0wpyVA1dlE1MsrMy0gtyiwBslSNXVWNndPyi1LTi/JL81Ig/IJEkEoQKze/DGRCBUSfAUiHkUElhGcK4bpBVOZk5iGpNEVVikeloQHZpsK0YlWLz1QgA+HFtMycHEgIIcujBwlQCBKcxq4A);strokeColor=#000000;spacingTop=-1;spacingBottom=-1;spacingLeft=-1;spacingRight=-1;points=[[1,0.5,0],[0.5,0,0],[0.5,0,0]];labelBackgroundColor=none;rounded=0;html=1;whiteSpace=wrap;" parent="2" vertex="1">
            <mxGeometry x="178.5" y="52" width="123" height="47" as="geometry" />
          </mxCell>
        </UserObject>
        <mxCell id="30" value="&lt;div style=&quot;&quot;&gt;&lt;p style=&quot;text-align: center; margin: 0px; text-indent: 0px; vertical-align: middle; direction: ltr;&quot;&gt;&lt;font style=&quot;direction: ltr; line-height: 120%; opacity: 1;&quot;&gt;&lt;font style=&quot;font-size: 9px;&quot; face=&quot;GOST type B&quot;&gt;to.getId() == from.getId()&lt;/font&gt;&lt;br&gt;&lt;/font&gt;&lt;/p&gt;&lt;/div&gt;" style="text;vsdxID=346;fillColor=none;gradientColor=none;strokeColor=none;spacingTop=-1;spacingBottom=-1;spacingLeft=-1;spacingRight=-1;points=[[1,0.5,0],[0.5,0,0],[0.5,0,0]];labelBackgroundColor=none;rounded=0;html=1;whiteSpace=wrap;verticalAlign=middle;align=center;overflow=width;;html=1;" parent="29" vertex="1">
          <mxGeometry x="10.31" y="5.49" width="103.15" height="35.58" as="geometry" />
        </mxCell>
        <UserObject label="&lt;div style=&quot;&quot;&gt;&lt;p style=&quot;text-align: center; margin: 0px; text-indent: 0px; vertical-align: middle; direction: ltr;&quot;&gt;&lt;font style=&quot;direction: ltr; line-height: 120%; opacity: 1;&quot;&gt;&lt;i style=&quot;&quot;&gt;&lt;font style=&quot;font-size: 9px;&quot; face=&quot;GOST type B&quot;&gt;ChipColor chipColor= from.getChipsColor()&lt;/font&gt;&lt;br&gt;&lt;/i&gt;&lt;/font&gt;&lt;/p&gt;&lt;/div&gt;" tags="Блок-схема" id="33">
          <mxCell style="verticalAlign=middle;align=center;overflow=width;vsdxID=352;fillColor=#FFFFFF;gradientColor=none;shape=stencil(nZBLDoAgDERP0z3SIyjew0SURgSD+Lu9kMZoXLhwN9O+tukAlrNpJg1SzDH4QW/URgNYgZTkjA4UkwJUgGXng+6DX1zLfmoymdXo17xh5zmRJ6Q42BWCfc2oJfdAr+Yv+AP9Cb7OJ3H/2JG1HNGz/84klThPVCc=);strokeColor=#000000;spacingTop=-1;spacingBottom=-1;spacingLeft=-1;spacingRight=-1;points=[[1,0.5,0],[0.5,0.5,0],[0.5,0,0]];labelBackgroundColor=none;rounded=0;html=1;whiteSpace=wrap;" parent="2" vertex="1">
            <mxGeometry x="187" y="202" width="106" height="31" as="geometry" />
          </mxCell>
        </UserObject>
        <UserObject label="&lt;div style=&quot;font-size: 1px&quot;&gt;&lt;font style=&quot;font-size:8.47px;font-family:GOST type B;color:#000000;direction:ltr;letter-spacing:0px;line-height:120%;opacity:1&quot;&gt;false&lt;/font&gt;&lt;/div&gt;" tags="Соединительная_линия" id="74">
          <mxCell style="vsdxID=348;edgeStyle=none;startArrow=none;endArrow=none;startSize=5;endSize=5;strokeColor=#000000;spacingTop=0;spacingBottom=0;spacingLeft=0;spacingRight=0;verticalAlign=middle;html=1;labelBackgroundColor=none;rounded=0;align=center;exitX=0.5040650406504065;exitY=1;exitDx=0;exitDy=0;exitPerimeter=0;entryX=0.5;entryY=0;entryDx=0;entryDy=0;entryPerimeter=0;" parent="2" source="29" target="kbQpAU7qGCOikrLXuBJP-119" edge="1">
            <mxGeometry x="0.3021" y="10" relative="1" as="geometry">
              <mxPoint as="offset" />
              <Array as="points" />
              <mxPoint x="238.885" y="147.49" as="targetPoint" />
            </mxGeometry>
          </mxCell>
        </UserObject>
        <UserObject label="" tags="Блок-схема" id="kbQpAU7qGCOikrLXuBJP-119">
          <mxCell style="vsdxID=346;fillColor=#FFFFFF;gradientColor=none;shape=stencil(UzV2Ls5ILEhVNTIoLinKz04tz0wpyVA1dlE1MsrMy0gtyiwBslSNXVWNndPyi1LTi/JL81Ig/IJEkEoQKze/DGRCBUSfAUiHkUElhGcK4bpBVOZk5iGpNEVVikeloQHZpsK0YlWLz1QgA+HFtMycHEgIIcujBwlQCBKcxq4A);strokeColor=#000000;spacingTop=-1;spacingBottom=-1;spacingLeft=-1;spacingRight=-1;points=[[1,0.5,0],[0.5,0,0],[0.5,0,0]];labelBackgroundColor=none;rounded=0;html=1;whiteSpace=wrap;" parent="2" vertex="1">
            <mxGeometry x="178.25" y="134" width="123" height="47" as="geometry" />
          </mxCell>
        </UserObject>
        <mxCell id="kbQpAU7qGCOikrLXuBJP-120" value="&lt;div style=&quot;&quot;&gt;&lt;p style=&quot;text-align: center; margin: 0px; text-indent: 0px; vertical-align: middle; direction: ltr;&quot;&gt;&lt;font style=&quot;direction: ltr; line-height: 120%; opacity: 1;&quot;&gt;&lt;font style=&quot;font-size: 9px;&quot; face=&quot;GOST type B&quot;&gt;to.getId() == from.getId()&lt;/font&gt;&lt;br&gt;&lt;/font&gt;&lt;/p&gt;&lt;/div&gt;" style="text;vsdxID=346;fillColor=none;gradientColor=none;strokeColor=none;spacingTop=-1;spacingBottom=-1;spacingLeft=-1;spacingRight=-1;points=[[1,0.5,0],[0.5,0,0],[0.5,0,0]];labelBackgroundColor=none;rounded=0;html=1;whiteSpace=wrap;verticalAlign=middle;align=center;overflow=width;;html=1;" parent="kbQpAU7qGCOikrLXuBJP-119" vertex="1">
          <mxGeometry x="10.31" y="5.49" width="103.15" height="35.58" as="geometry" />
        </mxCell>
        <UserObject label="&lt;div style=&quot;font-size: 1px&quot;&gt;&lt;font style=&quot;font-size:8.47px;font-family:GOST type B;color:#000000;direction:ltr;letter-spacing:0px;line-height:120%;opacity:1&quot;&gt;true&lt;/font&gt;&lt;/div&gt;" tags="Соединительная_линия" id="kbQpAU7qGCOikrLXuBJP-121">
          <mxCell style="vsdxID=348;edgeStyle=none;startArrow=none;endArrow=none;startSize=5;endSize=5;strokeColor=#000000;spacingTop=0;spacingBottom=0;spacingLeft=0;spacingRight=0;verticalAlign=middle;html=1;labelBackgroundColor=none;rounded=0;align=center;exitX=0.5040650406504065;exitY=1;exitDx=0;exitDy=0;exitPerimeter=0;entryX=0.5;entryY=0;entryDx=0;entryDy=0;entryPerimeter=0;" parent="2" source="kbQpAU7qGCOikrLXuBJP-119" target="33" edge="1">
            <mxGeometry x="0.0364" y="10" relative="1" as="geometry">
              <mxPoint as="offset" />
              <Array as="points" />
              <mxPoint x="240" y="212" as="targetPoint" />
            </mxGeometry>
          </mxCell>
        </UserObject>
        <UserObject label="&lt;div style=&quot;font-size: 1px&quot;&gt;&lt;font style=&quot;font-size:8.47px;font-family:GOST type B;color:#000000;direction:ltr;letter-spacing:0px;line-height:120%;opacity:1&quot;&gt;false&lt;br&gt;&lt;/font&gt;&lt;/div&gt;" tags="Соединительная_линия" id="kbQpAU7qGCOikrLXuBJP-122">
          <mxCell style="vsdxID=349;edgeStyle=none;startArrow=none;endArrow=none;startSize=5;endSize=5;strokeColor=#000000;spacingTop=0;spacingBottom=0;spacingLeft=0;spacingRight=0;verticalAlign=middle;html=1;labelBackgroundColor=none;rounded=0;align=center;exitX=0;exitY=0.48936170212765956;exitDx=0;exitDy=0;exitPerimeter=0;entryX=1;entryY=0;entryDx=0;entryDy=0;endFill=0;" parent="2" source="kbQpAU7qGCOikrLXuBJP-119" target="kbQpAU7qGCOikrLXuBJP-123" edge="1">
            <mxGeometry x="-0.5116" y="-13" relative="1" as="geometry">
              <mxPoint as="offset" />
              <Array as="points">
                <mxPoint x="112" y="157" />
              </Array>
              <mxPoint x="186.75" y="437" as="targetPoint" />
            </mxGeometry>
          </mxCell>
        </UserObject>
        <UserObject label="&lt;div style=&quot;&quot;&gt;&lt;font style=&quot;direction: ltr; line-height: 120%; opacity: 1;&quot;&gt;&lt;i style=&quot;&quot;&gt;&lt;font style=&quot;font-size: 9px;&quot; face=&quot;GOST type B&quot;&gt;bool removed = from.removeChip()&lt;/font&gt;&lt;br&gt;&lt;/i&gt;&lt;/font&gt;&lt;/div&gt;" tags="Блок-схема" id="32">
          <mxCell style="verticalAlign=middle;align=center;overflow=width;vsdxID=350;fillColor=#FFFFFF;gradientColor=none;shape=stencil(nZBLDoAgDERP0z3SIyjew0SURgSD+Lu9kMZoXLhwN9O+tukAlrNpJg1SzDH4QW/URgNYgZTkjA4UkwJUgGXng+6DX1zLfmoymdXo17xh5zmRJ6Q42BWCfc2oJfdAr+Yv+AP9Cb7OJ3H/2JG1HNGz/84klThPVCc=);strokeColor=#000000;spacingTop=-1;spacingBottom=-1;spacingLeft=-1;spacingRight=-1;points=[[1,0.5,0],[0.5,0.5,0],[0.5,0,0]];labelBackgroundColor=none;rounded=0;html=1;whiteSpace=wrap;" parent="2" vertex="1">
            <mxGeometry x="187" y="242" width="106" height="31" as="geometry" />
          </mxCell>
        </UserObject>
        <UserObject label="" tags="Соединительная_линия" id="66">
          <mxCell style="vsdxID=353;edgeStyle=none;startArrow=none;endArrow=none;startSize=5;endSize=5;strokeColor=#000000;spacingTop=0;spacingBottom=0;spacingLeft=0;spacingRight=0;verticalAlign=middle;html=1;labelBackgroundColor=none;rounded=0;exitX=0.5;exitY=1;exitDx=0;exitDy=0;exitPerimeter=0;entryX=0.5;entryY=0;entryDx=0;entryDy=0;entryPerimeter=0;" parent="2" source="33" target="32" edge="1">
            <mxGeometry relative="1" as="geometry">
              <mxPoint x="10" y="-1" as="offset" />
              <Array as="points" />
            </mxGeometry>
          </mxCell>
        </UserObject>
        <mxCell id="kbQpAU7qGCOikrLXuBJP-123" value="&lt;font style=&quot;font-size: 9px;&quot; face=&quot;GOST type B&quot;&gt;false&lt;/font&gt;" style="ellipse;whiteSpace=wrap;html=1;" parent="2" vertex="1">
          <mxGeometry x="60" y="286" width="60" height="33" as="geometry" />
        </mxCell>
        <UserObject label="&lt;div style=&quot;font-size: 1px&quot;&gt;&lt;font style=&quot;font-size:8.47px;font-family:GOST type B;color:#000000;direction:ltr;letter-spacing:0px;line-height:120%;opacity:1&quot;&gt;true&lt;br&gt;&lt;/font&gt;&lt;/div&gt;" tags="Соединительная_линия" id="68">
          <mxCell style="vsdxID=349;edgeStyle=none;startArrow=none;endArrow=none;startSize=5;endSize=5;strokeColor=#000000;spacingTop=0;spacingBottom=0;spacingLeft=0;spacingRight=0;verticalAlign=middle;html=1;labelBackgroundColor=none;rounded=0;align=center;exitX=0;exitY=0.48936170212765956;exitDx=0;exitDy=0;exitPerimeter=0;entryX=0.5;entryY=0;entryDx=0;entryDy=0;endFill=0;" parent="2" source="29" target="kbQpAU7qGCOikrLXuBJP-123" edge="1">
            <mxGeometry relative="1" as="geometry">
              <mxPoint x="15" y="-72" as="offset" />
              <Array as="points">
                <mxPoint x="90" y="75" />
              </Array>
            </mxGeometry>
          </mxCell>
        </UserObject>
        <UserObject label="" tags="Блок-схема" id="kbQpAU7qGCOikrLXuBJP-124">
          <mxCell style="vsdxID=346;fillColor=#FFFFFF;gradientColor=none;shape=stencil(UzV2Ls5ILEhVNTIoLinKz04tz0wpyVA1dlE1MsrMy0gtyiwBslSNXVWNndPyi1LTi/JL81Ig/IJEkEoQKze/DGRCBUSfAUiHkUElhGcK4bpBVOZk5iGpNEVVikeloQHZpsK0YlWLz1QgA+HFtMycHEgIIcujBwlQCBKcxq4A);strokeColor=#000000;spacingTop=-1;spacingBottom=-1;spacingLeft=-1;spacingRight=-1;points=[[1,0.5,0],[0.5,0,0],[0.5,0,0]];labelBackgroundColor=none;rounded=0;html=1;whiteSpace=wrap;" parent="2" vertex="1">
            <mxGeometry x="178.5" y="286" width="123" height="34" as="geometry" />
          </mxCell>
        </UserObject>
        <mxCell id="kbQpAU7qGCOikrLXuBJP-125" value="&lt;div style=&quot;&quot;&gt;&lt;p style=&quot;text-align: center; margin: 0px; text-indent: 0px; vertical-align: middle; direction: ltr;&quot;&gt;&lt;font style=&quot;direction: ltr; line-height: 120%; opacity: 1;&quot;&gt;&lt;font style=&quot;font-size: 9px;&quot; face=&quot;GOST type B&quot;&gt;removed&lt;/font&gt;&lt;br&gt;&lt;/font&gt;&lt;/p&gt;&lt;/div&gt;" style="text;vsdxID=346;fillColor=none;gradientColor=none;strokeColor=none;spacingTop=-1;spacingBottom=-1;spacingLeft=-1;spacingRight=-1;points=[[1,0.5,0],[0.5,0,0],[0.5,0,0]];labelBackgroundColor=none;rounded=0;html=1;whiteSpace=wrap;verticalAlign=middle;align=center;overflow=width;;html=1;" parent="kbQpAU7qGCOikrLXuBJP-124" vertex="1">
          <mxGeometry x="10.31" y="3.971489361702128" width="103.15" height="25.73872340425532" as="geometry" />
        </mxCell>
        <UserObject label="&lt;div style=&quot;font-size: 1px&quot;&gt;&lt;font style=&quot;font-size:8.47px;font-family:GOST type B;color:#000000;direction:ltr;letter-spacing:0px;line-height:120%;opacity:1&quot;&gt;true&lt;/font&gt;&lt;/div&gt;" tags="Соединительная_линия" id="kbQpAU7qGCOikrLXuBJP-126">
          <mxCell style="vsdxID=348;edgeStyle=none;startArrow=none;endArrow=none;startSize=5;endSize=5;strokeColor=#000000;spacingTop=0;spacingBottom=0;spacingLeft=0;spacingRight=0;verticalAlign=middle;html=1;labelBackgroundColor=none;rounded=0;align=center;exitX=0.5040650406504065;exitY=1;exitDx=0;exitDy=0;exitPerimeter=0;entryX=0.5;entryY=0;entryDx=0;entryDy=0;entryPerimeter=0;" parent="2" source="kbQpAU7qGCOikrLXuBJP-124" target="kbQpAU7qGCOikrLXuBJP-129" edge="1">
            <mxGeometry x="0.0364" y="10" relative="1" as="geometry">
              <mxPoint as="offset" />
              <Array as="points" />
              <mxPoint x="240" y="354" as="targetPoint" />
            </mxGeometry>
          </mxCell>
        </UserObject>
        <UserObject label="&lt;div style=&quot;font-size: 1px&quot;&gt;&lt;font style=&quot;font-size:8.47px;font-family:GOST type B;color:#000000;direction:ltr;letter-spacing:0px;line-height:120%;opacity:1&quot;&gt;false&lt;br&gt;&lt;/font&gt;&lt;/div&gt;" tags="Соединительная_линия" id="kbQpAU7qGCOikrLXuBJP-127">
          <mxCell style="vsdxID=349;edgeStyle=none;startArrow=none;endArrow=open;startSize=5;endSize=5;strokeColor=#000000;spacingTop=0;spacingBottom=0;spacingLeft=0;spacingRight=0;verticalAlign=middle;html=1;labelBackgroundColor=none;rounded=0;align=center;exitX=0;exitY=0.48936170212765956;exitDx=0;exitDy=0;exitPerimeter=0;entryX=1;entryY=0.5;entryDx=0;entryDy=0;" parent="2" source="kbQpAU7qGCOikrLXuBJP-124" target="kbQpAU7qGCOikrLXuBJP-123" edge="1">
            <mxGeometry x="-0.3367" y="-9" relative="1" as="geometry">
              <mxPoint as="offset" />
              <Array as="points" />
              <mxPoint x="111" y="437" as="targetPoint" />
            </mxGeometry>
          </mxCell>
        </UserObject>
        <mxCell id="kbQpAU7qGCOikrLXuBJP-128" style="edgeStyle=orthogonalEdgeStyle;rounded=0;orthogonalLoop=1;jettySize=auto;html=1;entryX=0.5;entryY=0;entryDx=0;entryDy=0;entryPerimeter=0;endArrow=none;endFill=0;exitX=0.499;exitY=0.997;exitDx=0;exitDy=0;exitPerimeter=0;" parent="2" source="32" target="kbQpAU7qGCOikrLXuBJP-124" edge="1">
          <mxGeometry relative="1" as="geometry">
            <mxPoint x="240" y="272" as="sourcePoint" />
          </mxGeometry>
        </mxCell>
        <UserObject label="" tags="Блок-схема" id="kbQpAU7qGCOikrLXuBJP-129">
          <mxCell style="vsdxID=346;fillColor=#FFFFFF;gradientColor=none;shape=stencil(UzV2Ls5ILEhVNTIoLinKz04tz0wpyVA1dlE1MsrMy0gtyiwBslSNXVWNndPyi1LTi/JL81Ig/IJEkEoQKze/DGRCBUSfAUiHkUElhGcK4bpBVOZk5iGpNEVVikeloQHZpsK0YlWLz1QgA+HFtMycHEgIIcujBwlQCBKcxq4A);strokeColor=#000000;spacingTop=-1;spacingBottom=-1;spacingLeft=-1;spacingRight=-1;points=[[1,0.5,0],[0.5,0,0],[0.5,0,0]];labelBackgroundColor=none;rounded=0;html=1;whiteSpace=wrap;" parent="2" vertex="1">
            <mxGeometry x="178.97" y="332" width="123" height="34" as="geometry" />
          </mxCell>
        </UserObject>
        <mxCell id="kbQpAU7qGCOikrLXuBJP-130" value="&lt;div style=&quot;&quot;&gt;&lt;p style=&quot;text-align: center; margin: 0px; text-indent: 0px; vertical-align: middle; direction: ltr;&quot;&gt;&lt;font style=&quot;direction: ltr; line-height: 120%; opacity: 1;&quot;&gt;&lt;font style=&quot;font-size: 9px;&quot; face=&quot;GOST type B&quot;&gt;isCellHead(from)&lt;/font&gt;&lt;br&gt;&lt;/font&gt;&lt;/p&gt;&lt;/div&gt;" style="text;vsdxID=346;fillColor=none;gradientColor=none;strokeColor=none;spacingTop=-1;spacingBottom=-1;spacingLeft=-1;spacingRight=-1;points=[[1,0.5,0],[0.5,0,0],[0.5,0,0]];labelBackgroundColor=none;rounded=0;html=1;whiteSpace=wrap;verticalAlign=middle;align=center;overflow=width;;html=1;" parent="kbQpAU7qGCOikrLXuBJP-129" vertex="1">
          <mxGeometry x="10.31" y="3.971489361702128" width="103.15" height="25.73872340425532" as="geometry" />
        </mxCell>
        <UserObject label="&lt;div style=&quot;font-size: 1px&quot;&gt;&lt;font style=&quot;font-size:8.47px;font-family:GOST type B;color:#000000;direction:ltr;letter-spacing:0px;line-height:120%;opacity:1&quot;&gt;true&lt;br&gt;&lt;/font&gt;&lt;/div&gt;" tags="Соединительная_линия" id="kbQpAU7qGCOikrLXuBJP-132">
          <mxCell style="vsdxID=349;edgeStyle=none;startArrow=none;endArrow=none;startSize=5;endSize=5;strokeColor=#000000;spacingTop=0;spacingBottom=0;spacingLeft=0;spacingRight=0;verticalAlign=middle;html=1;labelBackgroundColor=none;rounded=0;align=center;exitX=0;exitY=0.48936170212765956;exitDx=0;exitDy=0;exitPerimeter=0;entryX=0.5;entryY=0;entryDx=0;entryDy=0;entryPerimeter=0;endFill=0;" parent="2" source="kbQpAU7qGCOikrLXuBJP-129" target="kbQpAU7qGCOikrLXuBJP-133" edge="1">
            <mxGeometry x="-0.3367" y="-9" relative="1" as="geometry">
              <mxPoint as="offset" />
              <Array as="points">
                <mxPoint x="113" y="349" />
              </Array>
              <mxPoint x="119.75" y="363" as="targetPoint" />
            </mxGeometry>
          </mxCell>
        </UserObject>
        <UserObject label="&lt;div style=&quot;&quot;&gt;&lt;p style=&quot;text-align: center; margin: 0px; text-indent: 0px; vertical-align: middle; direction: ltr;&quot;&gt;&lt;font style=&quot;direction: ltr; line-height: 120%; opacity: 1;&quot;&gt;&lt;i style=&quot;&quot;&gt;&lt;font style=&quot;font-size: 9px;&quot; face=&quot;GOST type B&quot;&gt;fromHead = true&lt;/font&gt;&lt;br&gt;&lt;/i&gt;&lt;/font&gt;&lt;/p&gt;&lt;/div&gt;" tags="Блок-схема" id="kbQpAU7qGCOikrLXuBJP-133">
          <mxCell style="verticalAlign=middle;align=center;overflow=width;vsdxID=355;fillColor=#FFFFFF;gradientColor=none;shape=stencil(nZBLDoAgDERP0z3SIyjew0SURgSD+Lu9kMZoXLhwN9O+tukAlrNpJg1SzDH4QW/URgNYgZTkjA4UkwJUgGXng+6DX1zLfmoymdXo17xh5zmRJ6Q42BWCfc2oJfdAr+Yv+AP9Cb7OJ3H/2JG1HNGz/84klThPVCc=);strokeColor=#000000;spacingTop=-1;spacingBottom=-1;spacingLeft=-1;spacingRight=-1;points=[[1,0.5,0],[0.5,0.5,0],[0.5,0,0]];labelBackgroundColor=none;rounded=0;html=1;whiteSpace=wrap;" parent="2" vertex="1">
            <mxGeometry x="60" y="372" width="106" height="18" as="geometry" />
          </mxCell>
        </UserObject>
        <UserObject label="&lt;div style=&quot;&quot;&gt;&lt;p style=&quot;text-align: center; margin: 0px; text-indent: 0px; vertical-align: middle; direction: ltr;&quot;&gt;&lt;font style=&quot;direction: ltr; line-height: 120%; opacity: 1;&quot;&gt;&lt;i style=&quot;&quot;&gt;&lt;font style=&quot;font-size: 9px;&quot; face=&quot;GOST type B&quot;&gt;to.addChip(chipColor)&lt;/font&gt;&lt;br&gt;&lt;/i&gt;&lt;/font&gt;&lt;/p&gt;&lt;/div&gt;" tags="Блок-схема" id="34">
          <mxCell style="verticalAlign=middle;align=center;overflow=width;vsdxID=355;fillColor=#FFFFFF;gradientColor=none;shape=stencil(nZBLDoAgDERP0z3SIyjew0SURgSD+Lu9kMZoXLhwN9O+tukAlrNpJg1SzDH4QW/URgNYgZTkjA4UkwJUgGXng+6DX1zLfmoymdXo17xh5zmRJ6Q42BWCfc2oJfdAr+Yv+AP9Cb7OJ3H/2JG1HNGz/84klThPVCc=);strokeColor=#000000;spacingTop=-1;spacingBottom=-1;spacingLeft=-1;spacingRight=-1;points=[[1,0.5,0],[0.5,0.5,0],[0.5,0,0]];labelBackgroundColor=none;rounded=0;html=1;whiteSpace=wrap;" parent="2" vertex="1">
            <mxGeometry x="187.47000000000003" y="390" width="106" height="15" as="geometry" />
          </mxCell>
        </UserObject>
        <UserObject label="&lt;div style=&quot;font-size: 1px&quot;&gt;&lt;font style=&quot;font-size:8.47px;font-family:GOST type B;color:#000000;direction:ltr;letter-spacing:0px;line-height:120%;opacity:1&quot;&gt;false&lt;/font&gt;&lt;/div&gt;" tags="Соединительная_линия" id="kbQpAU7qGCOikrLXuBJP-131">
          <mxCell style="vsdxID=348;edgeStyle=none;startArrow=none;endArrow=none;startSize=5;endSize=5;strokeColor=#000000;spacingTop=0;spacingBottom=0;spacingLeft=0;spacingRight=0;verticalAlign=middle;html=1;labelBackgroundColor=none;rounded=0;align=center;exitX=0.5040650406504065;exitY=1;exitDx=0;exitDy=0;exitPerimeter=0;entryX=0.5;entryY=0;entryDx=0;entryDy=0;entryPerimeter=0;" parent="2" source="kbQpAU7qGCOikrLXuBJP-129" target="34" edge="1">
            <mxGeometry x="0.0364" y="10" relative="1" as="geometry">
              <mxPoint as="offset" />
              <Array as="points" />
              <mxPoint x="239.75" y="420" as="targetPoint" />
            </mxGeometry>
          </mxCell>
        </UserObject>
        <mxCell id="kbQpAU7qGCOikrLXuBJP-134" style="edgeStyle=orthogonalEdgeStyle;rounded=0;orthogonalLoop=1;jettySize=auto;html=1;entryX=0.001;entryY=0.52;entryDx=0;entryDy=0;entryPerimeter=0;endArrow=none;endFill=0;" parent="2" source="kbQpAU7qGCOikrLXuBJP-133" target="34" edge="1">
          <mxGeometry relative="1" as="geometry" />
        </mxCell>
        <UserObject label="&lt;div style=&quot;&quot;&gt;&lt;p style=&quot;text-align: center; margin: 0px; text-indent: 0px; vertical-align: middle; direction: ltr;&quot;&gt;&lt;font style=&quot;direction: ltr; line-height: 120%; opacity: 1;&quot;&gt;&lt;i style=&quot;&quot;&gt;&lt;font style=&quot;font-size: 9px;&quot; face=&quot;GOST type B&quot;&gt;unselectCell()&lt;/font&gt;&lt;br&gt;&lt;/i&gt;&lt;/font&gt;&lt;/p&gt;&lt;/div&gt;" tags="Блок-схема" id="kbQpAU7qGCOikrLXuBJP-135">
          <mxCell style="verticalAlign=middle;align=center;overflow=width;vsdxID=355;fillColor=#FFFFFF;gradientColor=none;shape=stencil(nZBLDoAgDERP0z3SIyjew0SURgSD+Lu9kMZoXLhwN9O+tukAlrNpJg1SzDH4QW/URgNYgZTkjA4UkwJUgGXng+6DX1zLfmoymdXo17xh5zmRJ6Q42BWCfc2oJfdAr+Yv+AP9Cb7OJ3H/2JG1HNGz/84klThPVCc=);strokeColor=#000000;spacingTop=-1;spacingBottom=-1;spacingLeft=-1;spacingRight=-1;points=[[1,0.5,0],[0.5,0.5,0],[0.5,0,0]];labelBackgroundColor=none;rounded=0;html=1;whiteSpace=wrap;" parent="2" vertex="1">
            <mxGeometry x="187" y="422" width="106" height="15" as="geometry" />
          </mxCell>
        </UserObject>
        <mxCell id="kbQpAU7qGCOikrLXuBJP-136" style="edgeStyle=orthogonalEdgeStyle;rounded=0;orthogonalLoop=1;jettySize=auto;html=1;entryX=0.5;entryY=0;entryDx=0;entryDy=0;entryPerimeter=0;endArrow=none;endFill=0;" parent="2" source="34" target="kbQpAU7qGCOikrLXuBJP-135" edge="1">
          <mxGeometry relative="1" as="geometry">
            <Array as="points">
              <mxPoint x="241" y="422" />
            </Array>
          </mxGeometry>
        </mxCell>
        <UserObject label="&lt;div style=&quot;&quot;&gt;&lt;p style=&quot;text-align: center; margin: 0px; text-indent: 0px; vertical-align: middle; direction: ltr;&quot;&gt;&lt;font style=&quot;direction: ltr; line-height: 120%; opacity: 1;&quot;&gt;&lt;i style=&quot;&quot;&gt;&lt;font style=&quot;font-size: 9px;&quot; face=&quot;GOST type B&quot;&gt;int distance = getCellsDistance(from, to)&lt;/font&gt;&lt;br&gt;&lt;/i&gt;&lt;/font&gt;&lt;/p&gt;&lt;/div&gt;" tags="Блок-схема" id="kbQpAU7qGCOikrLXuBJP-209">
          <mxCell style="verticalAlign=middle;align=center;overflow=width;vsdxID=355;fillColor=#FFFFFF;gradientColor=none;shape=stencil(nZBLDoAgDERP0z3SIyjew0SURgSD+Lu9kMZoXLhwN9O+tukAlrNpJg1SzDH4QW/URgNYgZTkjA4UkwJUgGXng+6DX1zLfmoymdXo17xh5zmRJ6Q42BWCfc2oJfdAr+Yv+AP9Cb7OJ3H/2JG1HNGz/84klThPVCc=);strokeColor=#000000;spacingTop=-1;spacingBottom=-1;spacingLeft=-1;spacingRight=-1;points=[[1,0.5,0],[0.5,0.5,0],[0.5,0,0]];labelBackgroundColor=none;rounded=0;html=1;whiteSpace=wrap;" parent="2" vertex="1">
            <mxGeometry x="189.1" y="452" width="102.75" height="38" as="geometry" />
          </mxCell>
        </UserObject>
        <mxCell id="kbQpAU7qGCOikrLXuBJP-210" style="edgeStyle=orthogonalEdgeStyle;rounded=0;orthogonalLoop=1;jettySize=auto;html=1;entryX=0.5;entryY=0;entryDx=0;entryDy=0;entryPerimeter=0;endArrow=none;endFill=0;" parent="2" source="kbQpAU7qGCOikrLXuBJP-135" target="kbQpAU7qGCOikrLXuBJP-209" edge="1">
          <mxGeometry relative="1" as="geometry">
            <Array as="points">
              <mxPoint x="240" y="452" />
            </Array>
          </mxGeometry>
        </mxCell>
        <UserObject label="&lt;div style=&quot;&quot;&gt;&lt;p style=&quot;text-align: center; margin: 0px; text-indent: 0px; vertical-align: middle; direction: ltr;&quot;&gt;&lt;font style=&quot;direction: ltr; line-height: 120%; opacity: 1;&quot;&gt;&lt;i style=&quot;&quot;&gt;&lt;font style=&quot;font-size: 9px;&quot; face=&quot;GOST type B&quot;&gt;std::vector&amp;lt;int&amp;gt;::iterator movePos = std::find(availableMovements.begin(), availableMovements.end(), distance)&lt;/font&gt;&lt;br&gt;&lt;/i&gt;&lt;/font&gt;&lt;/p&gt;&lt;/div&gt;" tags="Блок-схема" id="kbQpAU7qGCOikrLXuBJP-211">
          <mxCell style="verticalAlign=middle;align=center;overflow=width;vsdxID=355;fillColor=#FFFFFF;gradientColor=none;shape=stencil(nZBLDoAgDERP0z3SIyjew0SURgSD+Lu9kMZoXLhwN9O+tukAlrNpJg1SzDH4QW/URgNYgZTkjA4UkwJUgGXng+6DX1zLfmoymdXo17xh5zmRJ6Q42BWCfc2oJfdAr+Yv+AP9Cb7OJ3H/2JG1HNGz/84klThPVCc=);strokeColor=#000000;spacingTop=-1;spacingBottom=-1;spacingLeft=-1;spacingRight=-1;points=[[1,0.5,0],[0.5,0.5,0],[0.5,0,0]];labelBackgroundColor=none;rounded=0;html=1;whiteSpace=wrap;" parent="2" vertex="1">
            <mxGeometry x="70" y="502" width="340" height="38" as="geometry" />
          </mxCell>
        </UserObject>
        <mxCell id="kbQpAU7qGCOikrLXuBJP-212" style="edgeStyle=orthogonalEdgeStyle;rounded=0;orthogonalLoop=1;jettySize=auto;html=1;entryX=0.5;entryY=0;entryDx=0;entryDy=0;entryPerimeter=0;endArrow=none;endFill=0;" parent="2" source="kbQpAU7qGCOikrLXuBJP-209" target="kbQpAU7qGCOikrLXuBJP-211" edge="1">
          <mxGeometry relative="1" as="geometry">
            <Array as="points">
              <mxPoint x="241" y="502" />
            </Array>
          </mxGeometry>
        </mxCell>
        <UserObject label="" tags="Блок-схема" id="36">
          <mxCell style="vsdxID=357;fillColor=#FFFFFF;gradientColor=none;shape=stencil(UzV2Ls5ILEhVNTIoLinKz04tz0wpyVA1dlE1MsrMy0gtyiwBslSNXVWNndPyi1LTi/JL81Ig/IJEkEoQKze/DGRCBUSfAUiHkUElhGcK4bpBVOZk5iGpNEVVikeloQHZpsK0YlWLz1QgA+HFtMycHEgIIcujBwlQCBKcxq4A);strokeColor=#000000;spacingTop=-1;spacingBottom=-1;spacingLeft=-1;spacingRight=-1;points=[[1,0.5,0],[0.5,0,0],[0.5,0,0]];labelBackgroundColor=none;rounded=0;html=1;whiteSpace=wrap;" parent="2" vertex="1">
            <mxGeometry x="115.85" y="557" width="250" height="54" as="geometry" />
          </mxCell>
        </UserObject>
        <mxCell id="37" value="&lt;div&gt;&lt;font style=&quot;font-size: 9px;&quot; face=&quot;GOST type B&quot;&gt;movePos != availableMovements.end()&lt;/font&gt;&lt;br&gt;&lt;/div&gt;" style="text;vsdxID=357;fillColor=none;gradientColor=none;strokeColor=none;spacingTop=-1;spacingBottom=-1;spacingLeft=-1;spacingRight=-1;points=[[1,0.5,0],[0.5,0,0],[0.5,0,0]];labelBackgroundColor=none;rounded=0;html=1;whiteSpace=wrap;verticalAlign=middle;align=center;overflow=width;;html=1;" parent="36" vertex="1">
          <mxGeometry x="20.99206349206349" y="6.54" width="209.90079365079364" height="40.68" as="geometry" />
        </mxCell>
        <mxCell id="kbQpAU7qGCOikrLXuBJP-213" style="edgeStyle=orthogonalEdgeStyle;rounded=0;orthogonalLoop=1;jettySize=auto;html=1;endArrow=none;endFill=0;entryX=0.5;entryY=0;entryDx=0;entryDy=0;entryPerimeter=0;" parent="2" source="kbQpAU7qGCOikrLXuBJP-211" target="36" edge="1">
          <mxGeometry relative="1" as="geometry">
            <mxPoint x="239" y="552" as="targetPoint" />
            <Array as="points">
              <mxPoint x="240" y="552" />
            </Array>
          </mxGeometry>
        </mxCell>
        <UserObject label="&lt;div style=&quot;font-size: 1px&quot;&gt;&lt;font style=&quot;font-size:8.47px;font-family:GOST type B;color:#000000;direction:ltr;letter-spacing:0px;line-height:120%;opacity:1&quot;&gt;Yes&lt;br&gt;&lt;/font&gt;&lt;/div&gt;" tags="Соединительная_линия" id="62">
          <mxCell style="vsdxID=364;edgeStyle=none;startArrow=none;endArrow=none;startSize=5;endSize=5;strokeColor=#000000;spacingTop=0;spacingBottom=0;spacingLeft=0;spacingRight=0;verticalAlign=middle;html=1;labelBackgroundColor=none;rounded=0;align=center;exitX=0.5;exitY=1;exitDx=0;exitDy=0;exitPerimeter=0;entryX=0.5;entryY=0;entryDx=0;entryDy=0;entryPerimeter=0;" parent="2" source="36" target="39" edge="1">
            <mxGeometry relative="1" as="geometry">
              <mxPoint x="18" y="-3" as="offset" />
              <Array as="points" />
              <mxPoint x="270" y="602" as="targetPoint" />
            </mxGeometry>
          </mxCell>
        </UserObject>
        <mxCell id="kbQpAU7qGCOikrLXuBJP-219" style="edgeStyle=orthogonalEdgeStyle;rounded=0;orthogonalLoop=1;jettySize=auto;html=1;endArrow=none;endFill=0;" parent="2" source="39" target="kbQpAU7qGCOikrLXuBJP-218" edge="1">
          <mxGeometry relative="1" as="geometry" />
        </mxCell>
        <UserObject label="&lt;div style=&quot;&quot;&gt;&lt;font style=&quot;direction: ltr; line-height: 120%; opacity: 1;&quot;&gt;&lt;i style=&quot;&quot;&gt;&lt;font style=&quot;font-size: 9px;&quot; face=&quot;GOST type B&quot;&gt;availableMovements.erase(movePos)&lt;/font&gt;&lt;br&gt;&lt;/i&gt;&lt;/font&gt;&lt;/div&gt;" tags="Блок-схема" id="39">
          <mxCell style="verticalAlign=middle;align=center;overflow=width;vsdxID=360;fillColor=#FFFFFF;gradientColor=none;shape=stencil(nZBLDoAgDERP0z3SIyjew0SURgSD+Lu9kMZoXLhwN9O+tukAlrNpJg1SzDH4QW/URgNYgZTkjA4UkwJUgGXng+6DX1zLfmoymdXo17xh5zmRJ6Q42BWCfc2oJfdAr+Yv+AP9Cb7OJ3H/2JG1HNGz/84klThPVCc=);strokeColor=#000000;spacingTop=-1;spacingBottom=-1;spacingLeft=-1;spacingRight=-1;points=[[1,0.5,0],[0.5,0.5,0],[0.5,0,0]];labelBackgroundColor=none;rounded=0;html=1;whiteSpace=wrap;" parent="2" vertex="1">
            <mxGeometry x="170" y="652" width="140" height="31" as="geometry" />
          </mxCell>
        </UserObject>
        <UserObject label="&lt;div style=&quot;font-size: 1px&quot;&gt;&lt;font style=&quot;font-size:8.47px;font-family:GOST type B;color:#000000;direction:ltr;letter-spacing:0px;line-height:120%;opacity:1&quot;&gt;No&lt;br&gt;&lt;/font&gt;&lt;/div&gt;" tags="Соединительная_линия" id="65">
          <mxCell style="vsdxID=359;edgeStyle=none;startArrow=none;endArrow=none;startSize=5;endSize=5;strokeColor=#000000;spacingTop=0;spacingBottom=0;spacingLeft=0;spacingRight=0;verticalAlign=middle;html=1;labelBackgroundColor=none;rounded=0;align=center;exitX=0;exitY=0.5;exitDx=0;exitDy=0;exitPerimeter=0;entryX=-0.015;entryY=0.63;entryDx=0;entryDy=0;entryPerimeter=0;endFill=0;" parent="2" source="36" target="kbQpAU7qGCOikrLXuBJP-218" edge="1">
            <mxGeometry relative="1" as="geometry">
              <mxPoint x="14" y="-51" as="offset" />
              <Array as="points">
                <mxPoint x="116" y="732" />
              </Array>
              <mxPoint x="187" y="681.9999999999998" as="targetPoint" />
            </mxGeometry>
          </mxCell>
        </UserObject>
        <UserObject label="&lt;div style=&quot;&quot;&gt;&lt;font style=&quot;direction: ltr; line-height: 120%; opacity: 1;&quot;&gt;&lt;i style=&quot;&quot;&gt;&lt;font face=&quot;GOST type B&quot;&gt;&lt;span style=&quot;font-size: 8.47px;&quot;&gt;endOfMovements()&lt;/span&gt;&lt;/font&gt;&lt;br&gt;&lt;/i&gt;&lt;/font&gt;&lt;/div&gt;" tags="Блок-схема" id="kbQpAU7qGCOikrLXuBJP-218">
          <mxCell style="verticalAlign=middle;align=center;overflow=width;vsdxID=360;fillColor=#FFFFFF;gradientColor=none;shape=stencil(nZBLDoAgDERP0z3SIyjew0SURgSD+Lu9kMZoXLhwN9O+tukAlrNpJg1SzDH4QW/URgNYgZTkjA4UkwJUgGXng+6DX1zLfmoymdXo17xh5zmRJ6Q42BWCfc2oJfdAr+Yv+AP9Cb7OJ3H/2JG1HNGz/84klThPVCc=);strokeColor=#000000;spacingTop=-1;spacingBottom=-1;spacingLeft=-1;spacingRight=-1;points=[[1,0.5,0],[0.5,0.5,0],[0.5,0,0]];labelBackgroundColor=none;rounded=0;html=1;whiteSpace=wrap;" parent="2" vertex="1">
            <mxGeometry x="169.75" y="712" width="140" height="31" as="geometry" />
          </mxCell>
        </UserObject>
        <UserObject label="&lt;div style=&quot;&quot;&gt;&lt;font style=&quot;font-family: &amp;quot;GOST type B&amp;quot;; color: rgb(0, 0, 0); direction: ltr; letter-spacing: 0px; line-height: 120%; opacity: 1;&quot;&gt;&lt;i style=&quot;&quot;&gt;&lt;font style=&quot;font-size: 9px;&quot;&gt;true&lt;/font&gt;&lt;br&gt;&lt;/i&gt;&lt;/font&gt;&lt;/div&gt;" tags="Блок-схема" id="47">
          <mxCell style="verticalAlign=middle;align=center;overflow=width;vsdxID=375;fillColor=#FFFFFF;gradientColor=none;shape=stencil(tVJdE4IgEPw1POIg9OG76f9gEpWJwDko7d8HYZNm9tL0tne7dzcLi1huW94JRIl1YE6il5VrETsgSqVuBUjnEWIFYnltQDRgLrqKdceDMqCzuYYNQ5xLaZJtwhQlt7FDyKMuo1xJPZFn+yTdfZNzOHoOltth1G+jfH3hk8d8kBaDcdxJo2ec4tAI7E/hWvFmRtleiG7R/uhlaf0nJ+sv+RcvHrz+tJZKxUhM+fcM+FbMDyvu);strokeColor=#000000;spacingTop=-1;spacingBottom=-1;spacingLeft=-1;spacingRight=-1;points=[[0.5,0,0],[0.5,0.5,0],[1,0.5,0]];labelBackgroundColor=none;rounded=0;html=1;whiteSpace=wrap;" parent="2" vertex="1">
            <mxGeometry x="187.48000000000002" y="792" width="106" height="27" as="geometry" />
          </mxCell>
        </UserObject>
        <mxCell id="kbQpAU7qGCOikrLXuBJP-220" style="edgeStyle=orthogonalEdgeStyle;rounded=0;orthogonalLoop=1;jettySize=auto;html=1;entryX=0.5;entryY=0;entryDx=0;entryDy=0;entryPerimeter=0;endArrow=none;endFill=0;" parent="2" source="kbQpAU7qGCOikrLXuBJP-218" target="47" edge="1">
          <mxGeometry relative="1" as="geometry" />
        </mxCell>
        <UserObject label="&lt;div style=&quot;font-size: 1px&quot;&gt;&lt;p style=&quot;text-align:left;margin-left:0;margin-right:0;margin-top:0px;margin-bottom:0px;text-indent:0;vertical-align:middle;direction:ltr;&quot;&gt;&lt;font style=&quot;font-size:9.88px;font-family:GOST type B;color:#000000;direction:ltr;letter-spacing:0px;line-height:120%;opacity:1&quot;&gt;&lt;i&gt;Антонова Л.С.&lt;/i&gt;&lt;/font&gt;&lt;/p&gt;&lt;/div&gt;" tags="Фон" id="15">
          <mxCell style="verticalAlign=middle;align=left;overflow=width;vsdxID=216;fillColor=none;gradientColor=none;shape=stencil(nZBLDoAgDERP0z3SIyjew0SURgSD+Lu9kMZoXLhwN9O+tukAlrNpJg1SzDH4QW/URgNYgZTkjA4UkwJUgGXng+6DX1zLfmoymdXo17xh5zmRJ6Q42BWCfc2oJfdAr+Yv+AP9Cb7OJ3H/2JG1HNGz/84klThPVCc=);strokeColor=none;strokeWidth=2;spacingTop=-2;spacingBottom=-2;spacingLeft=-2;spacingRight=-2;points=[];labelBackgroundColor=none;rounded=0;html=1;whiteSpace=wrap;" parent="1" vertex="1">
            <mxGeometry x="150" y="1042" width="76" height="11" as="geometry" />
          </mxCell>
        </UserObject>
        <UserObject label="&lt;div style=&quot;font-size: 1px&quot;&gt;&lt;p style=&quot;text-align:left;margin-left:0;margin-right:0;margin-top:0px;margin-bottom:0px;text-indent:0;vertical-align:middle;direction:ltr;&quot;&gt;&lt;font style=&quot;font-size:9.88px;font-family:GOST type B;color:#000000;direction:ltr;letter-spacing:0px;line-height:120%;opacity:1&quot;&gt;&lt;i&gt;Чайкин И.С.&lt;/i&gt;&lt;/font&gt;&lt;/p&gt;&lt;/div&gt;" tags="Фон" id="16">
          <mxCell style="verticalAlign=middle;align=left;overflow=width;vsdxID=218;fillColor=none;gradientColor=none;shape=stencil(nZBLDoAgDERP0z3SIyjew0SURgSD+Lu9kMZoXLhwN9O+tukAlrNpJg1SzDH4QW/URgNYgZTkjA4UkwJUgGXng+6DX1zLfmoymdXo17xh5zmRJ6Q42BWCfc2oJfdAr+Yv+AP9Cb7OJ3H/2JG1HNGz/84klThPVCc=);strokeColor=none;strokeWidth=2;spacingTop=-2;spacingBottom=-2;spacingLeft=-2;spacingRight=-2;points=[];labelBackgroundColor=none;rounded=0;html=1;whiteSpace=wrap;" parent="1" vertex="1">
            <mxGeometry x="150" y="1062" width="76" height="11" as="geometry" />
          </mxCell>
        </UserObject>
        <UserObject label="&lt;div style=&quot;font-size: 1px&quot;&gt;&lt;p style=&quot;text-align:left;margin-left:0;margin-right:0;margin-top:0px;margin-bottom:0px;text-indent:0;vertical-align:middle;direction:ltr;&quot;&gt;&lt;font style=&quot;font-size:9.88px;font-family:Arial;color:#000000;direction:ltr;letter-spacing:0px;line-height:120%;opacity:1&quot;&gt;&lt;i&gt;&lt;br/&gt;&lt;br/&gt;&lt;/i&gt;&lt;/font&gt;&lt;/p&gt;&lt;/div&gt;" tags="Фон" id="17">
          <mxCell style="verticalAlign=middle;align=left;overflow=width;vsdxID=221;fillColor=none;gradientColor=none;shape=stencil(nZBLDoAgDERP0z3SIyjew0SURgSD+Lu9kMZoXLhwN9O+tukAlrNpJg1SzDH4QW/URgNYgZTkjA4UkwJUgGXng+6DX1zLfmoymdXo17xh5zmRJ6Q42BWCfc2oJfdAr+Yv+AP9Cb7OJ3H/2JG1HNGz/84klThPVCc=);strokeColor=none;strokeWidth=2;spacingTop=-2;spacingBottom=-2;spacingLeft=-2;spacingRight=-2;points=[];labelBackgroundColor=none;rounded=0;html=1;whiteSpace=wrap;" parent="1" vertex="1">
            <mxGeometry x="150" y="1120" width="80" height="11" as="geometry" />
          </mxCell>
        </UserObject>
        <UserObject label="&lt;div style=&quot;font-size: 1px&quot;&gt;&lt;font style=&quot;font-size:9.88px;font-family:GOST type B;color:#000000;direction:ltr;letter-spacing:0px;line-height:120%;opacity:1&quot;&gt;&lt;i&gt;1&lt;br/&gt;&lt;/i&gt;&lt;/font&gt;&lt;/div&gt;" tags="Фон" id="18">
          <mxCell style="verticalAlign=middle;align=center;overflow=width;vsdxID=224;fillColor=none;gradientColor=none;shape=stencil(nZBLDoAgDERP0z3SIyjew0SURgSD+Lu9kMZoXLhwN9O+tukAlrNpJg1SzDH4QW/URgNYgZTkjA4UkwJUgGXng+6DX1zLfmoymdXo17xh5zmRJ6Q42BWCfc2oJfdAr+Yv+AP9Cb7OJ3H/2JG1HNGz/84klThPVCc=);strokeColor=none;strokeWidth=2;spacingTop=-2;spacingBottom=-2;spacingLeft=-2;spacingRight=-2;points=[];labelBackgroundColor=none;rounded=0;html=1;whiteSpace=wrap;" parent="1" vertex="1">
            <mxGeometry x="731" y="1080" width="49" height="17" as="geometry" />
          </mxCell>
        </UserObject>
        <UserObject label="&lt;div style=&quot;font-size: 1px&quot;&gt;&lt;font style=&quot;font-size:12.7px;font-family:GOST type B;color:#000000;direction:ltr;letter-spacing:0px;line-height:120%;opacity:1&quot;&gt;&lt;i&gt;1:1&lt;br/&gt;&lt;/i&gt;&lt;/font&gt;&lt;/div&gt;" tags="Фон" id="19">
          <mxCell style="verticalAlign=middle;align=center;overflow=width;vsdxID=225;fillColor=none;gradientColor=none;shape=stencil(nZBLDoAgDERP0z3SIyjew0SURgSD+Lu9kMZoXLhwN9O+tukAlrNpJg1SzDH4QW/URgNYgZTkjA4UkwJUgGXng+6DX1zLfmoymdXo17xh5zmRJ6Q42BWCfc2oJfdAr+Yv+AP9Cb7OJ3H/2JG1HNGz/84klThPVCc=);strokeColor=none;strokeWidth=2;spacingTop=-2;spacingBottom=-2;spacingLeft=-2;spacingRight=-2;points=[];labelBackgroundColor=none;rounded=0;html=1;whiteSpace=wrap;" parent="1" vertex="1">
            <mxGeometry x="751" y="1040" width="49" height="17" as="geometry" />
          </mxCell>
        </UserObject>
        <UserObject label="&lt;div style=&quot;font-size: 1px&quot;&gt;&lt;p style=&quot;text-align:center;margin-left:0;margin-right:0;margin-top:0px;margin-bottom:0px;text-indent:0;vertical-align:middle;direction:ltr;&quot;&gt;&lt;font style=&quot;font-size:14.11px;font-family:GOST type B;color:#000000;direction:ltr;letter-spacing:0px;line-height:120%;opacity:1&quot;&gt;&lt;i&gt;Кафедра информатики&lt;br&gt;&lt;/i&gt;&lt;/font&gt;&lt;/p&gt;&lt;p style=&quot;text-align:center;margin-left:0;margin-right:0;margin-top:0px;margin-bottom:0px;text-indent:0;vertical-align:middle;direction:ltr;&quot;&gt;&lt;font style=&quot;font-size:14.11px;font-family:GOST type B;color:#000000;direction:ltr;letter-spacing:0px;line-height:120%;opacity:1&quot;&gt;&lt;i&gt;гр. &lt;/i&gt;&lt;/font&gt;&lt;font style=&quot;font-size:14.11px;font-family:GOST type B;color:#000000;direction:ltr;letter-spacing:0px;line-height:120%;opacity:1&quot;&gt;&lt;i&gt;3&lt;/i&gt;&lt;/font&gt;&lt;font style=&quot;font-size:14.11px;font-family:GOST type B;color:#000000;direction:ltr;letter-spacing:0px;line-height:120%;opacity:1&quot;&gt;&lt;i&gt;53504&lt;/i&gt;&lt;/font&gt;&lt;font style=&quot;font-size:14.11px;font-family:GOST type B;color:#000000;direction:ltr;letter-spacing:0px;line-height:120%;opacity:1&quot;&gt;&lt;i&gt;&lt;br&gt;&lt;/i&gt;&lt;/font&gt;&lt;/p&gt;&lt;/div&gt;" tags="Фон" id="20">
          <mxCell style="verticalAlign=middle;align=center;overflow=width;vsdxID=226;fillColor=none;gradientColor=none;shape=stencil(nZBLDoAgDERP0z3SIyjew0SURgSD+Lu9kMZoXLhwN9O+tukAlrNpJg1SzDH4QW/URgNYgZTkjA4UkwJUgGXng+6DX1zLfmoymdXo17xh5zmRJ6Q42BWCfc2oJfdAr+Yv+AP9Cb7OJ3H/2JG1HNGz/84klThPVCc=);strokeColor=none;strokeWidth=2;spacingTop=-2;spacingBottom=-2;spacingLeft=-2;spacingRight=-2;points=[];labelBackgroundColor=none;rounded=0;html=1;whiteSpace=wrap;" parent="1" vertex="1">
            <mxGeometry x="632" y="1112" width="168" height="32" as="geometry" />
          </mxCell>
        </UserObject>
        <UserObject label="&lt;div style=&quot;font-size: 1px&quot;&gt;&lt;font style=&quot;font-size:22.58px;font-family:GOST type B;color:#000000;direction:ltr;letter-spacing:0px;line-height:120%;opacity:1&quot;&gt;&lt;i&gt;Блок схема алгоритма выполнения хода&lt;/i&gt;&lt;/font&gt;&lt;font style=&quot;font-size:22.58px;font-family:GOST type B;color:#000000;direction:ltr;letter-spacing:0px;line-height:120%;opacity:1&quot;&gt;&lt;i&gt;&lt;br&gt;&lt;/i&gt;&lt;/font&gt;&lt;/div&gt;" tags="Фон" id="21">
          <mxCell style="verticalAlign=middle;align=center;overflow=width;vsdxID=227;fillColor=none;gradientColor=none;shape=stencil(nZBLDoAgDERP0z3SIyjew0SURgSD+Lu9kMZoXLhwN9O+tukAlrNpJg1SzDH4QW/URgNYgZTkjA4UkwJUgGXng+6DX1zLfmoymdXo17xh5zmRJ6Q42BWCfc2oJfdAr+Yv+AP9Cb7OJ3H/2JG1HNGz/84klThPVCc=);strokeColor=none;strokeWidth=2;spacingTop=-2;spacingBottom=-2;spacingLeft=-2;spacingRight=-2;points=[];labelBackgroundColor=none;rounded=0;html=1;whiteSpace=wrap;" parent="1" vertex="1">
            <mxGeometry x="332" y="1012" width="280" height="72" as="geometry" />
          </mxCell>
        </UserObject>
        <UserObject label="&lt;div style=&quot;font-size: 1px&quot;&gt;&lt;font style=&quot;font-size:22.58px;font-family:GOST type B;color:#000000;direction:ltr;letter-spacing:0px;line-height:120%;opacity:1&quot;&gt;&lt;i&gt;ГУИР.&lt;/i&gt;&lt;/font&gt;&lt;font style=&quot;font-size:22.58px;font-family:GOST type B;color:#000000;direction:ltr;letter-spacing:0px;line-height:120%;opacity:1&quot;&gt;&lt;i&gt;6-05&lt;/i&gt;&lt;/font&gt;&lt;font style=&quot;font-size:22.58px;font-family:GOST type B;color:#000000;direction:ltr;letter-spacing:0px;line-height:120%;opacity:1&quot;&gt;&lt;i&gt;-&lt;/i&gt;&lt;/font&gt;&lt;font style=&quot;font-size:22.58px;font-family:GOST type B;color:#000000;direction:ltr;letter-spacing:0px;line-height:120%;opacity:1&quot;&gt;&lt;i&gt;0612&lt;/i&gt;&lt;/font&gt;&lt;font style=&quot;font-size:22.58px;font-family:GOST type B;color:#000000;direction:ltr;letter-spacing:0px;line-height:120%;opacity:1&quot;&gt;&lt;i&gt;-0&lt;/i&gt;&lt;/font&gt;&lt;font style=&quot;font-size:22.58px;font-family:GOST type B;color:#000000;direction:ltr;letter-spacing:0px;line-height:120%;opacity:1&quot;&gt;&lt;i&gt;2&lt;/i&gt;&lt;/font&gt;&lt;font style=&quot;font-size:22.58px;font-family:GOST type B;color:#000000;direction:ltr;letter-spacing:0px;line-height:120%;opacity:1&quot;&gt;&lt;i&gt; 0&lt;/i&gt;&lt;/font&gt;&lt;font style=&quot;font-size:22.58px;font-family:GOST type B;color:#000000;direction:ltr;letter-spacing:0px;line-height:120%;opacity:1&quot;&gt;&lt;i&gt;01&lt;/i&gt;&lt;/font&gt;&lt;font style=&quot;font-size:22.58px;font-family:GOST type B;color:#000000;direction:ltr;letter-spacing:0px;line-height:120%;opacity:1&quot;&gt;&lt;i&gt;&amp;nbsp;П3&lt;br&gt;&lt;/i&gt;&lt;/font&gt;&lt;/div&gt;" tags="Фон" id="22">
          <mxCell style="verticalAlign=middle;align=center;overflow=width;vsdxID=228;fillColor=none;gradientColor=none;shape=stencil(nZBLDoAgDERP0z3SIyjew0SURgSD+Lu9kMZoXLhwN9O+tukAlrNpJg1SzDH4QW/URgNYgZTkjA4UkwJUgGXng+6DX1zLfmoymdXo17xh5zmRJ6Q42BWCfc2oJfdAr+Yv+AP9Cb7OJ3H/2JG1HNGz/84klThPVCc=);strokeColor=none;strokeWidth=2;spacingTop=-2;spacingBottom=-2;spacingLeft=-2;spacingRight=-2;points=[];labelBackgroundColor=none;rounded=0;html=1;whiteSpace=wrap;" parent="1" vertex="1">
            <mxGeometry x="340" y="952" width="456" height="32" as="geometry" />
          </mxCell>
        </UserObject>
        <UserObject label="&lt;div style=&quot;font-size: 1px&quot;&gt;&lt;font style=&quot;font-size:22.58px;font-family:GOST type B;color:#000000;direction:ltr;letter-spacing:0px;line-height:120%;opacity:1&quot;&gt;&lt;i&gt;ГУИР.&lt;/i&gt;&lt;/font&gt;&lt;font style=&quot;font-size:22.58px;font-family:GOST type B;color:#000000;direction:ltr;letter-spacing:0px;line-height:120%;opacity:1&quot;&gt;&lt;i&gt;6-05&lt;/i&gt;&lt;/font&gt;&lt;font style=&quot;font-size:22.58px;font-family:GOST type B;color:#000000;direction:ltr;letter-spacing:0px;line-height:120%;opacity:1&quot;&gt;&lt;i&gt;-0&lt;/i&gt;&lt;/font&gt;&lt;font style=&quot;font-size:22.58px;font-family:GOST type B;color:#000000;direction:ltr;letter-spacing:0px;line-height:120%;opacity:1&quot;&gt;&lt;i&gt;612&lt;/i&gt;&lt;/font&gt;&lt;font style=&quot;font-size:22.58px;font-family:GOST type B;color:#000000;direction:ltr;letter-spacing:0px;line-height:120%;opacity:1&quot;&gt;&lt;i&gt;-0&lt;/i&gt;&lt;/font&gt;&lt;font style=&quot;font-size:22.58px;font-family:GOST type B;color:#000000;direction:ltr;letter-spacing:0px;line-height:120%;opacity:1&quot;&gt;&lt;i&gt;2&lt;/i&gt;&lt;/font&gt;&lt;font style=&quot;font-size:22.58px;font-family:GOST type B;color:#000000;direction:ltr;letter-spacing:0px;line-height:120%;opacity:1&quot;&gt;&lt;i&gt; 0&lt;/i&gt;&lt;/font&gt;&lt;font style=&quot;font-size:22.58px;font-family:GOST type B;color:#000000;direction:ltr;letter-spacing:0px;line-height:120%;opacity:1&quot;&gt;&lt;i&gt;01&amp;nbsp;&lt;/i&gt;&lt;/font&gt;&lt;font style=&quot;font-size:22.58px;font-family:GOST type B;color:#000000;direction:ltr;letter-spacing:0px;line-height:120%;opacity:1&quot;&gt;&lt;i&gt;П3&lt;br&gt;&lt;/i&gt;&lt;/font&gt;&lt;/div&gt;" tags="Фон" id="23">
          <mxCell style="verticalAlign=middle;align=center;overflow=width;vsdxID=290;rotation=270;fillColor=none;gradientColor=none;shape=stencil(nZBLDoAgDERP0z3SIyjew0SURgSD+Lu9kMZoXLhwN9O+tukAlrNpJg1SzDH4QW/URgNYgZTkjA4UkwJUgGXng+6DX1zLfmoymdXo17xh5zmRJ6Q42BWCfc2oJfdAr+Yv+AP9Cb7OJ3H/2JG1HNGz/84klThPVCc=);strokeColor=none;strokeWidth=2;spacingTop=-2;spacingBottom=-2;spacingLeft=-2;spacingRight=-2;points=[];labelBackgroundColor=none;rounded=0;html=1;whiteSpace=wrap;" parent="1" vertex="1">
            <mxGeometry x="652" y="152" width="280" height="24" as="geometry" />
          </mxCell>
        </UserObject>
        <UserObject label="" tags="Фон" id="107">
          <mxCell style="vsdxID=292;edgeStyle=none;startArrow=none;endArrow=none;startSize=5;endSize=5;strokeWidth=2;strokeColor=#000000;spacingTop=0;spacingBottom=0;spacingLeft=0;spacingRight=0;verticalAlign=middle;html=1;labelBackgroundColor=#ffffff;rounded=0;endFill=0;" parent="1" edge="1">
            <mxGeometry relative="1" as="geometry">
              <Array as="points" />
              <mxPoint x="772" y="27" as="sourcePoint" />
              <mxPoint x="772" y="308" as="targetPoint" />
            </mxGeometry>
          </mxCell>
        </UserObject>
        <UserObject label="&lt;div style=&quot;font-size: 1px&quot;&gt;&lt;font style=&quot;font-size:9.88px;font-family:GOST type B;color:#000000;direction:ltr;letter-spacing:0px;line-height:120%;opacity:1&quot;&gt;&lt;i&gt;1&lt;br/&gt;&lt;/i&gt;&lt;/font&gt;&lt;/div&gt;" tags="Фон" id="24">
          <mxCell style="verticalAlign=middle;align=center;overflow=width;vsdxID=296;fillColor=none;gradientColor=none;shape=stencil(nZBLDoAgDERP0z3SIyjew0SURgSD+Lu9kMZoXLhwN9O+tukAlrNpJg1SzDH4QW/URgNYgZTkjA4UkwJUgGXng+6DX1zLfmoymdXo17xh5zmRJ6Q42BWCfc2oJfdAr+Yv+AP9Cb7OJ3H/2JG1HNGz/84klThPVCc=);strokeColor=none;strokeWidth=2;spacingTop=-2;spacingBottom=-2;spacingLeft=-2;spacingRight=-2;points=[];labelBackgroundColor=none;rounded=0;html=1;whiteSpace=wrap;" parent="1" vertex="1">
            <mxGeometry x="642" y="1080" width="49" height="17" as="geometry" />
          </mxCell>
        </UserObject>
        <UserObject label="&lt;div style=&quot;&quot;&gt;&lt;font style=&quot;direction: ltr; line-height: 120%; opacity: 1;&quot;&gt;&lt;i style=&quot;&quot;&gt;&lt;font style=&quot;font-size: 9px;&quot; face=&quot;GOST type B&quot;&gt;bool Game::tryMakeMove(Cell &amp;amp;from, Cell &amp;amp;to)&lt;/font&gt;&lt;br&gt;&lt;/i&gt;&lt;/font&gt;&lt;/div&gt;" tags="Блок-схема" id="25">
          <mxCell style="verticalAlign=middle;align=center;overflow=width;vsdxID=340;fillColor=#FFFFFF;gradientColor=none;shape=stencil(tVJBDoIwEHxNjzWllYQ74j8aWaCxtmRbBX9vazGiBC7G2+zO7G6mHSJK18keCGfOoz3DoGrfEXEgnCvTASofEBEVEWVjEVq0V1OnupdRGdHF3uKGMc1l+12RxynO7lOHsWd9THKtzExe5LtsUy7xFDhcbsdJnyf5+sIXT+WoHEXrpVfWfHBaYgs0nKKNlu10KlFuAOhn7Q0vS+s/OVl/yb94CeD9p43SOkVizn9nILRSfkT1AA==);strokeColor=#000000;spacingTop=-1;spacingBottom=-1;spacingLeft=-1;spacingRight=-1;points=[[0.5,0,0],[0.5,0.5,0],[1,0.5,0]];labelBackgroundColor=none;rounded=0;html=1;whiteSpace=wrap;" parent="1" vertex="1">
            <mxGeometry x="220" y="33" width="200" height="27" as="geometry" />
          </mxCell>
        </UserObject>
        <mxCell id="69" parent="1" vertex="1">
          <mxGeometry x="772" y="308" as="geometry" />
        </mxCell>
        <mxCell id="70" parent="1" vertex="1">
          <mxGeometry x="815" y="308" as="geometry" />
        </mxCell>
        <UserObject label="" tags="Соединительная_линия" id="71">
          <mxCell style="vsdxID=295;edgeStyle=none;startArrow=none;endArrow=none;startSize=9;endSize=9;strokeWidth=2;strokeColor=#000000;spacingTop=0;spacingBottom=0;spacingLeft=0;spacingRight=0;verticalAlign=middle;html=1;labelBackgroundColor=#ffffff;rounded=0;" parent="1" source="69" target="70" edge="1">
            <mxGeometry relative="1" as="geometry">
              <mxPoint as="offset" />
              <Array as="points" />
            </mxGeometry>
          </mxCell>
        </UserObject>
        <UserObject label="" tags="Electrical Соединительная_линия Блок-схема" id="108">
          <mxCell parent="1" vertex="1" visible="0">
            <mxGeometry as="geometry" />
          </mxCell>
        </UserObject>
        <mxCell id="kbQpAU7qGCOikrLXuBJP-109" style="edgeStyle=orthogonalEdgeStyle;rounded=0;orthogonalLoop=1;jettySize=auto;html=1;entryX=0.5;entryY=0;entryDx=0;entryDy=0;entryPerimeter=0;strokeColor=default;endArrow=none;endFill=0;" parent="1" source="25" target="29" edge="1">
          <mxGeometry relative="1" as="geometry" />
        </mxCell>
      </root>
    </mxGraphModel>
  </diagram>
</mxfile>
